<svg aria-hidden="true" style="position: absolute; width: 0; height: 0; overflow: hidden;" version="1.1"
  xmlns="http://www.w3.org/2000/svg" xmlns:xlink="http://www.w3.org/1999/xlink">
  <defs>

    <symbol id="icon-envelope" viewBox="0 0 43 32">
      <path
        d="M38.667 0h-34.667c-2.206 0-4 1.794-4 4v24c0 2.206 1.794 4 4 4h34.667c2.206 0 4-1.794 4-4v-24c0-2.206-1.794-4-4-4zM38.667 2.667c0.181 0 0.353 0.038 0.511 0.103l-17.844 15.466-17.844-15.466c0.158-0.066 0.33-0.103 0.511-0.103h34.667zM38.667 29.333h-34.667c-0.736 0-1.333-0.598-1.333-1.333v-22.413l17.793 15.421c0.251 0.217 0.563 0.326 0.874 0.326s0.622-0.108 0.874-0.326l17.793-15.421v22.413c0 0.736-0.598 1.333-1.333 1.333z">
      </path>
    </symbol>

    <symbol id="icon-smartphone" viewBox="0 0 20 32">
      <path
        d="M17 0h-14c-1.654 0-3 1.346-3 3v26c0 1.654 1.346 3 3 3h14c1.654 0 3-1.346 3-3v-26c0-1.654-1.346-3-3-3zM3 2h14c0.552 0 1 0.448 1 1v21h-16v-21c0-0.552 0.448-1 1-1zM17 30h-14c-0.552 0-1-0.448-1-1v-3h16v3c0 0.552-0.448 1-1 1z">
      </path>
      <path
        d="M4.707 27.478c0.391 0.365 0.391 0.956 0 1.321s-1.024 0.365-1.414 0c-0.391-0.365-0.391-0.956 0-1.321s1.024-0.365 1.414 0z">
      </path>
    </symbol>

    <symbol id="icon-antenna" viewBox="0 0 32 32">
      <path fill="#212121"
        d="M30.773 22.098l-8.443-8.505 0.937-4.615c0.242 0.094 0.499 0.144 0.758 0.146h0.006c1.192 0.014 2.17-0.941 2.184-2.133s-0.941-2.17-2.133-2.184c-1.192-0.014-2.17 0.941-2.184 2.133-0.003 0.255 0.039 0.509 0.125 0.749l-4.96 0.605-8.091-8.133c-0.099-0.101-0.235-0.159-0.377-0.16-0.14 0.001-0.274 0.056-0.373 0.155l-1.513 1.504c-0.208 0.208-0.208 0.546 0 0.754l0.814 0.826c-3.153 5.798-2.129 12.978 2.519 17.663 0.043 0.041 0.092 0.074 0.146 0.098-0.034 0.18-0.051 0.364-0.052 0.547v6.187h-6.4c-1.472 0.002-2.665 1.195-2.667 2.667v1.067c0 0.295 0.239 0.533 0.533 0.533h24.533c0.295 0 0.533-0.239 0.533-0.533v-1.067c-0.002-1.472-1.195-2.665-2.667-2.667h-6.4v-2.742c1.003 0.21 2.024 0.317 3.049 0.32 2.458-0.003 4.877-0.615 7.040-1.783l0.818 0.823c0.099 0.101 0.235 0.159 0.377 0.16 0.14-0.001 0.274-0.056 0.373-0.155l1.513-1.504c0.208-0.208 0.208-0.546 0-0.754zM23.28 6.233c0.418-0.415 1.093-0.414 1.508 0.004s0.414 1.093-0.004 1.508c-0.2 0.199-0.47 0.31-0.752 0.31h-0.003c-0.589-0.003-1.064-0.483-1.061-1.072 0.002-0.282 0.115-0.552 0.314-0.751h-0.002zM22.024 9.738l-0.598 2.946-1.175-1.182 1.774-1.763zM21.419 8.836l-1.92 1.909-1.485-1.493 3.405-0.415zM24.004 28.8c0.884 0 1.6 0.716 1.6 1.6v0.533h-23.467v-0.533c0-0.884 0.716-1.6 1.6-1.6h20.267zM16.537 26.667v1.067h-5.333v-1.067h5.333zM11.204 25.6v-4.053c0-1.294 1.196-2.347 2.667-2.347s2.667 1.053 2.667 2.347v4.053h-5.333zM17.604 23.904v-2.357c0-1.882-1.675-3.413-3.733-3.413-1.331-0.020-2.576 0.657-3.281 1.786-4.058-4.274-4.971-10.645-2.279-15.887l18.602 18.708c-2.872 1.461-6.165 1.873-9.309 1.163zM28.893 23.22l-21.057-21.181 0.755-0.752 7.935 7.98c0.004 0 0.006 0.007 0.010 0.010l13.115 13.191-0.757 0.752z">
      </path>
      <path fill="#2196f3"
        d="M13.876 20.267h-0.005c-0.884-0.001-1.601 0.714-1.602 1.598s0.714 1.601 1.598 1.602h0.005c0.884 0.001 1.601-0.714 1.602-1.598s-0.714-1.601-1.598-1.602zM14.249 22.245c-0.1 0.1-0.236 0.156-0.378 0.155-0.295-0.002-0.532-0.242-0.531-0.536 0.001-0.141 0.057-0.276 0.157-0.375s0.233-0.154 0.373-0.155c0.295 0.002 0.532 0.241 0.53 0.536-0.001 0.141-0.057 0.276-0.157 0.375h0.005z">
      </path>
    </symbol>

    <symbol id="icon-clock" viewBox="0 0 32 32">
      <path fill="#212121"
        d="M31.297 15.301c-0.002-8.452-6.855-15.303-15.308-15.301s-15.303 6.855-15.301 15.308c0.001 6.658 4.307 12.551 10.649 14.576 0.061 0.019 0.124 0.029 0.187 0.029 0.121-0 0.239-0.032 0.342-0.094 0.135-0.080 0.236-0.207 0.283-0.356l3.865-12.25c1.057-0.005 1.909-0.866 1.903-1.923s-0.866-1.909-1.923-1.903c-0.284 0.001-0.565 0.067-0.82 0.191l-5.106-5.107c-0.253-0.245-0.657-0.238-0.902 0.016-0.239 0.247-0.239 0.639 0 0.886l5.103 5.109c-0.392 0.799-0.168 1.764 0.536 2.309l-3.683 11.673c-7.278-2.681-11.004-10.754-8.323-18.032s10.754-11.004 18.032-8.323 11.004 10.754 8.323 18.032c-1.31 3.556-4.001 6.431-7.462 7.973l-0.398-1.874c-0.073-0.344-0.411-0.565-0.756-0.492-0.109 0.023-0.209 0.074-0.292 0.148l-3.837 3.426c-0.263 0.234-0.287 0.637-0.052 0.9 0.076 0.085 0.174 0.149 0.283 0.184l4.899 1.563c0.335 0.108 0.694-0.077 0.802-0.412 0.034-0.106 0.040-0.219 0.017-0.328l-0.391-1.839c5.664-2.388 9.342-7.942 9.329-14.089zM15.992 14.664c0.352 0 0.638 0.286 0.638 0.638s-0.286 0.638-0.638 0.638c-0.352 0-0.638-0.285-0.638-0.638s0.285-0.638 0.638-0.638zM18.093 29.528l2.184-1.948 0.603 2.84-2.787-0.892z">
      </path>
      <path fill="#2196f3"
        d="M15.354 3.185v1.275c0 0.352 0.285 0.638 0.638 0.638s0.638-0.285 0.638-0.638v-1.275c0-0.352-0.286-0.638-0.638-0.638s-0.638 0.286-0.638 0.638z">
      </path>
      <path fill="#2196f3"
        d="M3.876 14.664c-0.352 0-0.638 0.286-0.638 0.638s0.285 0.638 0.638 0.638h1.275c0.352 0 0.638-0.285 0.638-0.638s-0.285-0.638-0.638-0.638h-1.275z">
      </path>
      <path fill="#2196f3"
        d="M28.108 15.939c0.352 0 0.638-0.285 0.638-0.638s-0.285-0.638-0.638-0.638h-1.275c-0.352 0-0.638 0.286-0.638 0.638s0.286 0.638 0.638 0.638h1.275z">
      </path>
    </symbol>

    <symbol id="icon-diagram" viewBox="0 0 32 32">
      <path fill="#2196f3" d="M14.926 14.965h1.066v4.798h-1.066v-4.797z"></path>
      <path fill="#2196f3" d="M19.19 17.097h1.066v2.665h-1.066v-2.665z"></path>
      <path fill="#2196f3" d="M10.661 18.696h1.066v1.066h-1.066v-1.066z"></path>
      <path fill="#2196f3" d="M7.463 18.163h1.066v1.599h-1.066v-1.599z"></path>
      <path fill="#212121"
        d="M1.599 28.291h25.587c0.883 0 1.599-0.716 1.599-1.599v-2.132c0-0.883-0.716-1.599-1.599-1.599h-0.533v-13.293l3.028-2.868c0.703 0.346 1.553 0.136 2.013-0.499s0.396-1.508-0.152-2.068-1.42-0.644-2.065-0.198c-0.644 0.446-0.873 1.292-0.542 2.002l-2.281 2.163v-1.23c0-0.883-0.716-1.599-1.599-1.599h-21.322c-0.883 0-1.599 0.716-1.599 1.599v15.992h-0.533c-0.883 0-1.599 0.716-1.599 1.599v2.132c0 0.883 0.716 1.599 1.599 1.599zM30.384 4.837c0.294 0 0.533 0.239 0.533 0.533s-0.239 0.533-0.533 0.533c-0.294 0-0.533-0.239-0.533-0.533s0.239-0.533 0.533-0.533zM3.198 6.969c0-0.294 0.239-0.533 0.533-0.533h21.322c0.294 0 0.533 0.239 0.533 0.533v2.239l-1.066 1.013v-2.186c0-0.294-0.239-0.533-0.533-0.533h-19.19c-0.294 0-0.533 0.239-0.533 0.533v13.326c0 0.294 0.239 0.533 0.533 0.533h19.19c0.294 0 0.533-0.239 0.533-0.533v-9.674l1.066-1.010v12.284h-22.388v-15.992zM7.996 13.899c-0.721-0.002-1.354 0.478-1.546 1.174s0.105 1.433 0.725 1.801c0.62 0.368 1.41 0.276 1.928-0.226l1.853 0.93c0.215 0.108 0.476 0.057 0.636-0.123l3.939-4.431 3.872 2.901c0.208 0.156 0.498 0.139 0.686-0.039l3.365-3.188v8.131h-18.124v-12.26h18.124v2.66l-3.771 3.572-3.904-2.927c-0.222-0.166-0.534-0.135-0.718 0.072l-3.993 4.493-1.493-0.746c0.011-0.064 0.018-0.129 0.020-0.193 0-0.883-0.716-1.599-1.599-1.599zM8.529 15.498c0 0.294-0.239 0.533-0.533 0.533s-0.533-0.239-0.533-0.533c0-0.294 0.239-0.533 0.533-0.533s0.533 0.239 0.533 0.533zM11.727 24.027h5.331v0.533c0 0.294-0.239 0.533-0.533 0.533h-4.264c-0.294 0-0.533-0.239-0.533-0.533v-0.533zM1.066 24.56c0-0.294 0.239-0.533 0.533-0.533h9.062v0.533c0 0.883 0.716 1.599 1.599 1.599h4.264c0.883 0 1.599-0.716 1.599-1.599v-0.533h9.062c0.294 0 0.533 0.239 0.533 0.533v2.132c0 0.294-0.239 0.533-0.533 0.533h-25.587c-0.294 0-0.533-0.239-0.533-0.533v-2.132z">
      </path>
    </symbol>

    <symbol id="icon-astronaut" viewBox="0 0 32 32">
      <path fill="#2196f3"
        d="M31.974 4.524c-0.063-0.193-0.229-0.333-0.43-0.363l-1.91-0.278-0.855-1.731c-0.179-0.365-0.777-0.365-0.956 0l-0.855 1.731-1.91 0.278c-0.201 0.029-0.367 0.17-0.431 0.363-0.062 0.193-0.011 0.405 0.135 0.547l1.383 1.348-0.326 1.903c-0.034 0.2 0.048 0.402 0.212 0.522 0.166 0.121 0.382 0.135 0.562 0.040l1.709-0.899 1.709 0.899c0.078 0.041 0.164 0.061 0.249 0.061 0.11 0 0.221-0.034 0.314-0.102 0.164-0.119 0.246-0.322 0.212-0.522l-0.326-1.903 1.383-1.348c0.145-0.142 0.197-0.354 0.135-0.547zM29.511 5.851c-0.125 0.122-0.183 0.299-0.153 0.472l0.191 1.114-1-0.526c-0.078-0.041-0.163-0.061-0.249-0.061s-0.17 0.020-0.249 0.061l-1.001 0.526 0.191-1.114c0.030-0.173-0.028-0.349-0.153-0.472l-0.81-0.789 1.119-0.163c0.174-0.025 0.324-0.134 0.402-0.292l0.5-1.013 0.5 1.013c0.078 0.157 0.228 0.267 0.402 0.292l1.119 0.163-0.809 0.789z">
      </path>
      <path fill="#2196f3" d="M26.134 20.522h-1.067v1.067h1.067v-1.067z"></path>
      <path fill="#2196f3" d="M26.134 22.656h-1.067v1.067h1.067v-1.067z"></path>
      <path fill="#2196f3" d="M27.2 21.589h-1.067v1.067h1.067v-1.067z"></path>
      <path fill="#2196f3" d="M25.067 21.589h-1.067v1.067h1.067v-1.067z"></path>
      <path fill="#2196f3" d="M22.4 26.389h-1.067v1.067h1.067v-1.067z"></path>
      <path fill="#2196f3" d="M22.4 28.522h-1.067v1.067h1.067v-1.067z"></path>
      <path fill="#2196f3" d="M23.467 27.456h-1.067v1.067h1.067v-1.067z"></path>
      <path fill="#2196f3" d="M21.333 27.456h-1.067v1.067h1.067v-1.067z"></path>
      <path fill="#2196f3" d="M16 24.256h-1.067v1.067h1.067v-1.067z"></path>
      <path fill="#2196f3" d="M16 26.389h-1.067v1.067h1.067v-1.067z"></path>
      <path fill="#2196f3" d="M17.067 25.322h-1.067v1.067h1.067v-1.067z"></path>
      <path fill="#2196f3" d="M14.933 25.322h-1.067v1.067h1.067v-1.067z"></path>
      <path fill="#2196f3" d="M5.867 6.122h-1.067v1.067h1.067v-1.067z"></path>
      <path fill="#2196f3" d="M5.867 8.255h-1.067v1.067h1.067v-1.067z"></path>
      <path fill="#2196f3" d="M6.933 7.189h-1.067v1.067h1.067v-1.067z"></path>
      <path fill="#2196f3" d="M4.8 7.189h-1.067v1.067h1.067v-1.067z"></path>
      <path fill="#212121"
        d="M24.715 14.159c-0.287-0.388-0.709-0.637-1.188-0.705-0.481-0.068-0.956 0.058-1.34 0.352l-1.252 0.96-1.898 1.417-1.358-0.541c2.421-1.086 4.114-3.508 4.114-6.32 0-3.823-3.123-6.933-6.961-6.933s-6.961 3.11-6.961 6.933c0 1.386 0.414 2.674 1.12 3.758l-2.764-0.024c-0.002 0-0.003 0-0.005 0-0.009 0-0.015 0.004-0.023 0.005-0.053 0.002-0.105 0.013-0.155 0.031-0.013 0.005-0.026 0.008-0.038 0.013-0.006 0.003-0.013 0.003-0.019 0.006l-3.233 1.596c-0.001 0-0.001 0-0.001 0.001l-1.893 0.911c-0.021 0.009-0.042 0.021-0.063 0.035-0.755 0.502-1.012 1.489-0.598 2.295 0.22 0.429 0.595 0.745 1.056 0.889 0.178 0.055 0.359 0.083 0.539 0.083 0.29 0 0.577-0.071 0.839-0.211l1.388-0.738 2.264-1.169 1.357-0.008-5.442 5.416c-0.001 0.001-0.001 0.001-0.002 0.001l-1.339 1.333c-0.316 0.315-0.49 0.732-0.49 1.178s0.174 0.863 0.49 1.179c0.325 0.323 0.752 0.485 1.179 0.485s0.854-0.162 1.18-0.485l1.314-1.309 1.741-1.3 0.901 0.897-1.762 1.754c-0 0.001-0.001 0.001-0.002 0.001l-1.339 1.333c-0.316 0.315-0.49 0.732-0.49 1.178s0.174 0.863 0.49 1.179c0.325 0.323 0.753 0.485 1.18 0.485s0.855-0.162 1.18-0.485l3.482-3.467c0.001-0.001 0.001-0.001 0.001-0.002l1.010-1-0.004-0.004c0.006-0.006 0.015-0.009 0.022-0.015l5.166-5.658 3.471 0.494c0.025 0.004 0.050 0.005 0.075 0.005 0.065 0 0.127-0.015 0.187-0.038 0.018-0.006 0.033-0.015 0.050-0.023 0.019-0.010 0.039-0.015 0.058-0.027l3.213-2.133c0.012-0.008 0.018-0.021 0.029-0.029 0.013-0.010 0.029-0.014 0.041-0.026l1.271-1.191c0.662-0.62 0.753-1.635 0.212-2.362zM2.13 17.77c-0.173 0.093-0.37 0.111-0.558 0.052-0.187-0.058-0.338-0.186-0.427-0.358-0.161-0.314-0.068-0.695 0.214-0.902l1.314-0.632 0.449 1.312-0.992 0.528zM5.628 15.942l-1.548 0.8-0.439-1.283 2.027-1.001-0.040 1.484zM20.727 9.322c0 0.918-0.219 1.785-0.599 2.559l-4.181-1.899c-0.044-0.573-0.341-1.075-0.788-1.388l1.464-4.86c2.378 0.756 4.105 2.974 4.105 5.588zM8.938 9.322c0-3.235 2.644-5.867 5.894-5.867 0.253 0 0.5 0.021 0.745 0.052l-1.432 4.754c-0.019-0.001-0.037-0.006-0.057-0.006-1.033 0-1.873 0.837-1.873 1.867s0.84 1.867 1.873 1.867c0.694 0 1.294-0.383 1.618-0.945l3.862 1.755c-1.075 1.446-2.795 2.39-4.737 2.39-3.25 0-5.894-2.632-5.894-5.867zM14.894 10.122c0 0.441-0.362 0.8-0.806 0.8s-0.806-0.359-0.806-0.8c0-0.441 0.362-0.8 0.806-0.8s0.806 0.359 0.806 0.8zM2.465 25.146c-0.236 0.234-0.619 0.234-0.854 0.001-0.114-0.114-0.176-0.263-0.176-0.423s0.062-0.309 0.176-0.421l0.962-0.958 0.851 0.848-0.959 0.955zM5.679 28.88c-0.236 0.234-0.619 0.235-0.855 0.001-0.114-0.114-0.176-0.263-0.176-0.423s0.062-0.309 0.176-0.421l0.963-0.959 0.852 0.848-0.96 0.955zM9.16 25.411c-0.001 0-0.001 0-0.002 0.001l-1.765 1.76-0.852-0.848 1.763-1.755c0 0 0 0 0-0s0.001-0.001 0.002-0.001c0.040-0.040 0.065-0.088 0.090-0.135 0.007-0.014 0.020-0.026 0.026-0.040 0.017-0.041 0.019-0.085 0.026-0.129 0.003-0.025 0.014-0.047 0.014-0.073 0-0.036-0.013-0.070-0.020-0.106-0.006-0.032-0.006-0.065-0.019-0.095-0.020-0.050-0.055-0.094-0.091-0.138-0.010-0.012-0.014-0.027-0.025-0.038 0 0 0 0-0.001 0s-0.001-0.002-0.001-0.002l-1.607-1.6c-0.017-0.017-0.039-0.024-0.058-0.038-0.028-0.022-0.055-0.042-0.087-0.058-0.030-0.015-0.061-0.024-0.093-0.033-0.034-0.010-0.067-0.017-0.103-0.020-0.033-0.002-0.063 0.001-0.095 0.005-0.036 0.004-0.069 0.009-0.104 0.020-0.034 0.011-0.063 0.027-0.094 0.045-0.020 0.011-0.042 0.015-0.061 0.029l-1.773 1.324-0.901-0.897 2.399-2.386 4.361 4.289-0.928 0.919zM15.979 18.394c-0.015-0.002-0.030 0.004-0.045 0.003-0.039-0.002-0.076 0.001-0.115 0.007-0.030 0.005-0.059 0.011-0.088 0.021-0.034 0.012-0.065 0.028-0.097 0.047-0.030 0.018-0.057 0.037-0.083 0.061-0.013 0.011-0.028 0.017-0.040 0.029l-4.698 5.146-4.328-4.257 2.833-2.818c0.209-0.208 0.21-0.546 0.002-0.755-0.105-0.105-0.243-0.157-0.381-0.156v-0.001l-2.219 0.013 0.028-1.607 3.104 0.027c1.265 1.294 3.029 2.101 4.981 2.101 0.437 0 0.864-0.045 1.279-0.123 0.040 0.032 0.079 0.065 0.13 0.085l2.41 0.96 0.331 1.644-3.003-0.427zM20.020 18.572l-0.313-1.558 1.446-1.080 0.947 1.257-2.080 1.381zM23.774 15.741l-0.838 0.785-0.931-1.236 0.831-0.637c0.155-0.119 0.351-0.168 0.543-0.143 0.193 0.027 0.364 0.128 0.48 0.284 0.217 0.292 0.18 0.699-0.085 0.947z">
      </path>
      <path fill="#212121"
        d="M13.602 18.544l-2.143-2.133c-0.207-0.207-0.545-0.207-0.753 0l-2.142 2.133c-0.1 0.101-0.157 0.236-0.157 0.378s0.056 0.278 0.157 0.378l2.142 2.133c0.104 0.103 0.241 0.155 0.377 0.155s0.273-0.052 0.376-0.155l2.143-2.133c0.1-0.1 0.157-0.236 0.157-0.378s-0.057-0.278-0.157-0.378zM11.083 20.303l-1.387-1.381 1.387-1.381 1.387 1.381-1.387 1.381z">
      </path>
      <path fill="#212121"
        d="M17.164 5.071l-0.258 1.036c0.071 0.018 1.738 0.452 1.738 2.149h1.067c-0-2.017-1.666-2.965-2.547-3.185z">
      </path>
      <path fill="#212121" d="M19.711 9.322h-1.067v1.067h1.067v-1.067z"></path>
    </symbol>

    <symbol id="icon-instagram" viewBox="0 0 32 32">
      <path
        d="M31.969 9.408c-0.075-1.7-0.35-2.869-0.744-3.882-0.406-1.075-1.032-2.038-1.851-2.838-0.8-0.813-1.769-1.444-2.832-1.844-1.019-0.394-2.182-0.669-3.882-0.744-1.713-0.081-2.257-0.1-6.601-0.1s-4.888 0.019-6.595 0.094c-1.7 0.075-2.869 0.35-3.882 0.744-1.075 0.406-2.038 1.031-2.838 1.85-0.813 0.8-1.444 1.769-1.844 2.832-0.394 1.019-0.669 2.182-0.744 3.882-0.081 1.713-0.1 2.257-0.1 6.601s0.019 4.888 0.094 6.595c0.075 1.7 0.35 2.869 0.744 3.882 0.406 1.075 1.038 2.038 1.85 2.838 0.8 0.813 1.769 1.444 2.832 1.844 1.019 0.394 2.182 0.669 3.882 0.744 1.706 0.075 2.25 0.094 6.595 0.094s4.888-0.019 6.595-0.094c1.7-0.075 2.869-0.35 3.882-0.744 2.151-0.832 3.851-2.532 4.682-4.682 0.394-1.019 0.669-2.182 0.744-3.882 0.075-1.707 0.094-2.251 0.094-6.595s-0.006-4.888-0.081-6.595zM29.087 22.473c-0.069 1.563-0.331 2.407-0.55 2.969-0.538 1.394-1.644 2.5-3.038 3.038-0.563 0.219-1.413 0.481-2.969 0.55-1.688 0.075-2.194 0.094-6.464 0.094s-4.782-0.019-6.464-0.094c-1.563-0.069-2.407-0.331-2.969-0.55-0.694-0.256-1.325-0.663-1.838-1.194-0.531-0.519-0.938-1.144-1.194-1.838-0.219-0.563-0.481-1.413-0.55-2.969-0.075-1.688-0.094-2.194-0.094-6.464s0.019-4.782 0.094-6.464c0.069-1.563 0.331-2.407 0.55-2.969 0.256-0.694 0.663-1.325 1.2-1.838 0.519-0.531 1.144-0.938 1.838-1.194 0.563-0.219 1.413-0.481 2.969-0.55 1.688-0.075 2.194-0.094 6.464-0.094 4.276 0 4.782 0.019 6.464 0.094 1.563 0.069 2.407 0.331 2.969 0.55 0.694 0.256 1.325 0.662 1.838 1.194 0.531 0.519 0.938 1.144 1.194 1.838 0.219 0.563 0.481 1.413 0.55 2.969 0.075 1.688 0.094 2.194 0.094 6.464s-0.019 4.77-0.094 6.458z">
      </path>
      <path
        d="M16.059 7.783c-4.538 0-8.22 3.682-8.22 8.22s3.682 8.22 8.22 8.22c4.539 0 8.22-3.682 8.22-8.22s-3.682-8.22-8.22-8.22zM16.059 21.335c-2.944 0-5.332-2.388-5.332-5.332s2.388-5.332 5.332-5.332c2.944 0 5.332 2.388 5.332 5.332s-2.388 5.332-5.332 5.332z">
      </path>
      <path
        d="M26.524 7.458c0 1.060-0.859 1.919-1.919 1.919s-1.919-0.859-1.919-1.919c0-1.060 0.859-1.919 1.919-1.919s1.919 0.859 1.919 1.919z">
      </path>
    </symbol>

    <symbol id="icon-twitter" viewBox="0 0 32 32">
      <path
        d="M32 6.078c-1.19 0.522-2.458 0.868-3.78 1.036 1.36-0.812 2.398-2.088 2.886-3.626-1.268 0.756-2.668 1.29-4.16 1.588-1.204-1.282-2.92-2.076-4.792-2.076-3.632 0-6.556 2.948-6.556 6.562 0 0.52 0.044 1.020 0.152 1.496-5.454-0.266-10.28-2.88-13.522-6.862-0.566 0.982-0.898 2.106-0.898 3.316 0 2.272 1.17 4.286 2.914 5.452-1.054-0.020-2.088-0.326-2.964-0.808 0 0.020 0 0.046 0 0.072 0 3.188 2.274 5.836 5.256 6.446-0.534 0.146-1.116 0.216-1.72 0.216-0.42 0-0.844-0.024-1.242-0.112 0.85 2.598 3.262 4.508 6.13 4.57-2.232 1.746-5.066 2.798-8.134 2.798-0.538 0-1.054-0.024-1.57-0.090 2.906 1.874 6.35 2.944 10.064 2.944 12.072 0 18.672-10 18.672-18.668 0-0.29-0.010-0.57-0.024-0.848 1.302-0.924 2.396-2.078 3.288-3.406z">
      </path>
    </symbol>

    <symbol id="icon-facebook" viewBox="0 0 32 32">
      <path
        d="M21.329 5.313h2.921v-5.088c-0.504-0.069-2.237-0.225-4.256-0.225-4.212 0-7.097 2.649-7.097 7.519v4.481h-4.648v5.688h4.648v14.312h5.699v-14.311h4.46l0.708-5.688h-5.169v-3.919c0.001-1.644 0.444-2.769 2.735-2.769z">
      </path>
    </symbol>

    <symbol id="icon-linkedin" viewBox="0 0 32 32">
      <path
        d="M31.992 32v-0.001h0.008v-11.736c0-5.741-1.236-10.164-7.948-10.164-3.227 0-5.392 1.771-6.276 3.449h-0.093v-2.913h-6.364v21.364h6.627v-10.579c0-2.785 0.528-5.479 3.977-5.479 3.399 0 3.449 3.179 3.449 5.657v10.401h6.62z">
      </path>
      <path d="M0.528 10.636h6.635v21.364h-6.635v-21.364z"></path>
      <path
        d="M3.843 0c-2.121 0-3.843 1.721-3.843 3.843s1.721 3.879 3.843 3.879c2.121 0 3.843-1.757 3.843-3.879-0.001-2.121-1.723-3.843-3.843-3.843v0z">
      </path>
    </symbol>

    <symbol id="icon-Logo" viewBox="0 0 57 32">
      <path
        d="M20.267 3.733l3.738 3.538-6.938-0.004v17.166h18.133v-6.564l3.733 3.534v-17.671h-18.667zM35.036 17.455l-10.597-10.032h10.597v10.032zM31.746 21.923h-11.81v-11.545h0.835v10.764h10.975v0.782zM22.725 26.72l-0.436 0.898-0.436-0.898h-0.366l0.637 1.198v0.698h0.331v-0.698l0.635-1.198h-0.365zM23.273 28.615l0.154-0.441h0.734l0.155 0.441h0.344l-0.717-1.896h-0.296l-0.716 1.896h0.342zM23.794 27.122l0.275 0.786h-0.549l0.275-0.786zM25.531 27.863c-0.048 0.073-0.072 0.153-0.072 0.241 0 0.16 0.056 0.29 0.168 0.389s0.263 0.148 0.451 0.148 0.349-0.051 0.484-0.152l0.107 0.126h0.367l-0.279-0.329c0.109-0.149 0.164-0.341 0.164-0.574h-0.275c0 0.128-0.026 0.243-0.079 0.348l-0.366-0.432 0.129-0.094c0.091-0.066 0.157-0.132 0.197-0.198s0.060-0.14 0.060-0.219c0-0.12-0.044-0.22-0.133-0.301s-0.201-0.122-0.339-0.122c-0.153 0-0.274 0.043-0.365 0.13s-0.135 0.203-0.135 0.352c0 0.061 0.014 0.124 0.043 0.189s0.081 0.144 0.155 0.237c-0.141 0.101-0.235 0.188-0.283 0.262zM26.386 28.282c-0.093 0.071-0.193 0.107-0.299 0.107-0.095 0-0.17-0.027-0.227-0.082s-0.085-0.126-0.085-0.214c0-0.102 0.052-0.192 0.156-0.271l0.040-0.029 0.414 0.488zM26.046 27.442c-0.089-0.11-0.134-0.202-0.134-0.275 0-0.063 0.018-0.116 0.055-0.158s0.085-0.063 0.147-0.063c0.057 0 0.105 0.018 0.142 0.053s0.056 0.077 0.056 0.126c0 0.075-0.027 0.136-0.081 0.184l-0.040 0.033-0.145 0.099zM29.132 28.472c0.13-0.114 0.205-0.272 0.224-0.474h-0.328c-0.017 0.135-0.059 0.232-0.124 0.29s-0.162 0.087-0.292 0.087c-0.142 0-0.249-0.054-0.323-0.161s-0.109-0.264-0.109-0.469v-0.168c0.002-0.202 0.041-0.355 0.117-0.46s0.188-0.158 0.331-0.158c0.123 0 0.217 0.030 0.28 0.091s0.104 0.158 0.12 0.294h0.328c-0.021-0.207-0.095-0.368-0.223-0.482s-0.296-0.171-0.505-0.171c-0.155 0-0.293 0.037-0.411 0.111s-0.209 0.179-0.272 0.315c-0.063 0.136-0.095 0.294-0.095 0.473v0.177c0.003 0.174 0.035 0.328 0.098 0.46s0.151 0.234 0.266 0.306c0.115 0.071 0.249 0.107 0.4 0.107 0.216 0 0.389-0.056 0.52-0.169zM31.068 28.206c0.064-0.141 0.096-0.304 0.096-0.49v-0.105c-0.001-0.185-0.034-0.347-0.099-0.486s-0.158-0.247-0.277-0.32c-0.119-0.075-0.256-0.112-0.41-0.112s-0.292 0.038-0.411 0.113c-0.119 0.075-0.211 0.183-0.277 0.324s-0.098 0.305-0.098 0.49v0.107c0.001 0.181 0.034 0.342 0.099 0.48s0.159 0.246 0.279 0.322c0.121 0.075 0.258 0.112 0.411 0.112 0.155 0 0.293-0.037 0.411-0.112s0.212-0.183 0.276-0.323zM30.716 27.135c0.080 0.112 0.12 0.273 0.12 0.483v0.099c0 0.214-0.040 0.376-0.119 0.487s-0.19 0.167-0.336 0.167c-0.144 0-0.257-0.057-0.339-0.171s-0.121-0.275-0.121-0.483v-0.109c0.002-0.204 0.043-0.362 0.122-0.473s0.192-0.168 0.335-0.168c0.146 0 0.258 0.056 0.337 0.168z">
      </path>
    </symbol>

    <symbol id="icon-Logo-1" viewBox="0 0 57 32">
      <path
        d="M26.727 3.165h-0.073c-0.112-0.007-0.224-0.010-0.336-0.012v0h-0.243c-0.212 0-0.428 0.005-0.642 0.016-0.016-0.001-0.032-0.001-0.049 0-1.944 0.11-3.848 0.596-5.609 1.431l-0.231 0.111v11.809l0.54-0.183c0.474-0.163 0.978-0.309 1.5-0.445 1.411-0.362 2.861-0.555 4.317-0.574v1.551c-0.193 0.001-0.38 0.007-0.568 0.016h-0.045c-1.121 0.061-2.233 0.232-3.322 0.51-1.378 0.345-2.708 0.863-3.957 1.542v-15.145c1.298-0.757 2.695-1.325 4.151-1.688 1.278-0.33 2.593-0.5 3.913-0.504h0.228c0.273 0.007 0.538 0.019 0.788 0.038 0.658 0.046 1.31 0.15 1.95 0.311v1.527c-0.621-0.145-1.253-0.24-1.889-0.285-0.013-0.001-0.026-0.002-0.039-0.003-0.132-0.011-0.263-0.022-0.386-0.022zM29.415 4.726c0.339 0.026 0.689 0.038 1.044 0.038 1.388-0.005 2.769-0.182 4.114-0.528 1.378-0.346 2.706-0.865 3.956-1.543v14.875c-1.298 0.756-2.696 1.325-4.153 1.688-1.279 0.329-2.593 0.498-3.913 0.503-1 0.008-1.997-0.11-2.968-0.35v-14.971c0.229 0.053 0.465 0.102 0.706 0.142 0.394 0.066 0.81 0.115 1.214 0.145zM36.985 4.841l-0.54 0.182c-0.497 0.167-0.997 0.316-1.5 0.449-1.465 0.377-2.971 0.57-4.483 0.575-0.352 0-0.676-0.010-0.989-0.030l-0.43-0.028v12.148l0.37 0.033c0.343 0.030 0.696 0.045 1.052 0.045 1.191-0.005 2.377-0.159 3.531-0.457 0.95-0.238 1.874-0.57 2.759-0.991l0.231-0.111v-11.813z">
      </path>
      <path
        d="M19.060 24.113c-0.078-0.080-0.171-0.144-0.274-0.186s-0.214-0.061-0.326-0.057c-0.119-0.002-0.237 0.021-0.347 0.065-0.101 0.040-0.193 0.101-0.27 0.178s-0.135 0.17-0.174 0.271c-0.042 0.107-0.063 0.22-0.062 0.335v2.023c-0.005 0.143 0.022 0.284 0.080 0.415 0.048 0.104 0.117 0.196 0.202 0.271 0.081 0.068 0.176 0.117 0.278 0.144 0.098 0.028 0.2 0.042 0.302 0.042 0.113 0.001 0.224-0.023 0.326-0.070 0.101-0.044 0.193-0.108 0.27-0.187 0.075-0.079 0.135-0.171 0.177-0.271 0.043-0.102 0.065-0.212 0.065-0.323v-0.226h-0.529v0.18c0.002 0.062-0.009 0.123-0.031 0.18-0.017 0.043-0.043 0.082-0.077 0.114-0.033 0.026-0.070 0.046-0.111 0.058-0.036 0.012-0.073 0.018-0.111 0.019-0.047 0.006-0.095-0.002-0.139-0.021s-0.081-0.049-0.11-0.088c-0.050-0.081-0.074-0.176-0.070-0.271v-1.887c-0.003-0.105 0.019-0.208 0.065-0.302 0.027-0.043 0.066-0.077 0.112-0.098s0.097-0.030 0.147-0.024c0.046-0.002 0.091 0.008 0.132 0.028s0.077 0.049 0.104 0.086c0.059 0.078 0.090 0.173 0.088 0.271v0.175h0.524v-0.206c0.001-0.121-0.021-0.241-0.065-0.354-0.039-0.106-0.099-0.203-0.177-0.285z">
      </path>
      <path
        d="M22.202 24.090c-0.169-0.142-0.381-0.221-0.602-0.222-0.108 0-0.215 0.020-0.316 0.057-0.103 0.037-0.198 0.093-0.279 0.165-0.088 0.079-0.158 0.175-0.205 0.283-0.053 0.124-0.079 0.257-0.077 0.392v1.941c-0.004 0.137 0.023 0.272 0.077 0.397 0.048 0.104 0.118 0.197 0.205 0.271 0.081 0.075 0.176 0.133 0.279 0.171 0.101 0.037 0.208 0.056 0.316 0.057s0.215-0.020 0.316-0.057c0.105-0.038 0.202-0.096 0.286-0.171 0.084-0.076 0.152-0.168 0.2-0.271 0.054-0.125 0.081-0.261 0.077-0.397v-1.941c0.003-0.135-0.024-0.268-0.077-0.392-0.047-0.107-0.115-0.203-0.2-0.283zM21.955 26.706c0.004 0.052-0.003 0.104-0.021 0.152s-0.047 0.092-0.084 0.128c-0.070 0.059-0.158 0.091-0.249 0.091s-0.179-0.032-0.249-0.091c-0.037-0.036-0.066-0.080-0.084-0.128s-0.025-0.101-0.021-0.152v-1.941c-0.004-0.052 0.003-0.104 0.021-0.152s0.047-0.092 0.084-0.128c0.070-0.059 0.158-0.091 0.249-0.091s0.179 0.032 0.249 0.091c0.037 0.036 0.066 0.080 0.084 0.128s0.025 0.101 0.021 0.152v1.941z">
      </path>
      <path
        d="M26.329 27.573v-3.674h-0.509l-0.668 1.945h-0.009l-0.673-1.945h-0.503v3.674h0.525v-2.235h0.009l0.514 1.58h0.262l0.518-1.58h0.009v2.235h0.525z">
      </path>
      <path
        d="M29.311 24.157c-0.081-0.091-0.183-0.16-0.297-0.201-0.123-0.040-0.251-0.059-0.38-0.057h-0.78v3.674h0.523v-1.435h0.27c0.163 0.007 0.326-0.027 0.472-0.1 0.119-0.066 0.218-0.163 0.287-0.281 0.061-0.098 0.101-0.206 0.12-0.32 0.021-0.138 0.030-0.278 0.028-0.418 0.005-0.176-0.012-0.353-0.051-0.525-0.035-0.127-0.101-0.243-0.193-0.338zM29.041 25.277c-0.002 0.067-0.019 0.132-0.049 0.191-0.030 0.056-0.077 0.102-0.135 0.129-0.078 0.035-0.162 0.050-0.247 0.046h-0.239v-1.249h0.27c0.081-0.004 0.162 0.012 0.236 0.046 0.054 0.031 0.097 0.079 0.123 0.136 0.029 0.065 0.044 0.134 0.046 0.205 0 0.077 0 0.159 0 0.244s0.005 0.174 0 0.252h-0.005z">
      </path>
      <path
        d="M31.791 23.899h-0.429l-0.809 3.674h0.523l0.154-0.789h0.714l0.154 0.789h0.524l-0.83-3.674zM31.308 26.283l0.258-1.332h0.009l0.256 1.332h-0.524z">
      </path>
      <path d="M35.173 26.112h-0.009l-0.791-2.213h-0.503v3.674h0.523v-2.209h0.011l0.8 2.209h0.492v-3.674h-0.523v2.213z">
      </path>
      <path
        d="M38.372 23.899l-0.421 1.461h-0.011l-0.421-1.461h-0.554l0.719 2.121v1.553h0.524v-1.553l0.719-2.121h-0.554z">
      </path>
      <path d="M17.6 28.61h0.252v0.708h0.171v-0.708h0.251v-0.145h-0.675v0.145z"></path>
      <path
        d="M19.721 28.465l-0.331 0.853h0.182l0.070-0.194h0.34l0.073 0.194h0.186l-0.339-0.853h-0.182zM19.694 28.981l0.116-0.316 0.116 0.316h-0.232z">
      </path>
      <path
        d="M21.818 29.004h0.197v0.11c-0.058 0.046-0.129 0.071-0.202 0.072-0.034 0.002-0.069-0.004-0.1-0.019s-0.059-0.036-0.081-0.063c-0.045-0.065-0.068-0.143-0.063-0.222 0-0.19 0.082-0.285 0.246-0.285 0.043-0.004 0.086 0.007 0.121 0.032s0.061 0.062 0.072 0.104l0.169-0.033c-0.036-0.167-0.156-0.251-0.362-0.251-0.11-0.003-0.216 0.036-0.298 0.11-0.043 0.042-0.076 0.094-0.097 0.15s-0.030 0.117-0.025 0.178c-0.005 0.117 0.034 0.231 0.109 0.32 0.042 0.043 0.092 0.077 0.148 0.098s0.116 0.031 0.176 0.027c0.134 0.004 0.263-0.045 0.362-0.136v-0.336h-0.37v0.144z">
      </path>
      <path d="M23.959 28.465h-0.173v0.853h0.598v-0.145h-0.425v-0.708z"></path>
      <path d="M25.769 28.465h-0.173v0.853h0.173v-0.853z"></path>
      <path d="M27.539 29.035l-0.349-0.57h-0.167v0.853h0.161v-0.557l0.343 0.557h0.171v-0.853h-0.158v0.57z"></path>
      <path d="M29.14 28.943h0.425v-0.145h-0.425v-0.187h0.457v-0.145h-0.63v0.853h0.648v-0.145h-0.475v-0.231z"></path>
      <path d="M33.020 28.802h-0.336v-0.336h-0.171v0.853h0.171v-0.373h0.336v0.373h0.171v-0.853h-0.171v0.336z"></path>
      <path d="M34.629 28.943h0.426v-0.145h-0.426v-0.187h0.459v-0.145h-0.63v0.853h0.646v-0.145h-0.475v-0.231z"></path>
      <path
        d="M36.812 28.943c0.148-0.023 0.224-0.102 0.224-0.237 0.004-0.036-0.001-0.073-0.016-0.106s-0.038-0.062-0.068-0.083c-0.077-0.039-0.163-0.056-0.25-0.050h-0.362v0.853h0.171v-0.357h0.034c0.037-0.002 0.073 0.004 0.107 0.019 0.025 0.015 0.046 0.037 0.061 0.062l0.186 0.271h0.205l-0.104-0.167c-0.046-0.082-0.111-0.153-0.189-0.205zM36.64 28.825h-0.127v-0.214h0.135c0.059-0.005 0.118 0.002 0.174 0.020 0.012 0.011 0.022 0.025 0.029 0.040s0.009 0.032 0.009 0.049c-0.001 0.017-0.005 0.033-0.013 0.048s-0.019 0.027-0.032 0.037c-0.056 0.017-0.115 0.024-0.174 0.020z">
      </path>
      <path d="M38.458 28.943h0.425v-0.145h-0.425v-0.187h0.459v-0.145h-0.631v0.853h0.648v-0.145h-0.475v-0.231z"></path>
    </symbol>

    <symbol id="icon-Logo-2" viewBox="0 0 57 32">
      <path
        d="M19.417 26.187c0.008 0 0.017 0.002 0.025 0.005s0.015 0.007 0.020 0.013l0.116 0.111c-0.090 0.090-0.202 0.162-0.327 0.211-0.147 0.053-0.305 0.079-0.464 0.076-0.149 0.003-0.298-0.021-0.436-0.071-0.125-0.045-0.237-0.113-0.329-0.2-0.094-0.089-0.166-0.194-0.212-0.308-0.051-0.127-0.076-0.261-0.074-0.396-0.002-0.135 0.025-0.27 0.080-0.397 0.051-0.115 0.127-0.22 0.225-0.308 0.099-0.087 0.218-0.155 0.349-0.201 0.143-0.048 0.296-0.072 0.449-0.071 0.143-0.003 0.285 0.019 0.417 0.064 0.115 0.043 0.221 0.104 0.313 0.178l-0.097 0.119c-0.007 0.008-0.015 0.016-0.025 0.021-0.012 0.007-0.025 0.010-0.039 0.009-0.015-0.001-0.030-0.005-0.042-0.013l-0.052-0.032-0.073-0.040c-0.031-0.015-0.064-0.028-0.097-0.039-0.043-0.013-0.087-0.024-0.132-0.032-0.057-0.009-0.115-0.013-0.173-0.013-0.111-0.001-0.22 0.017-0.323 0.053-0.096 0.034-0.182 0.084-0.253 0.149-0.073 0.069-0.128 0.15-0.164 0.238-0.041 0.101-0.061 0.207-0.060 0.313-0.002 0.108 0.018 0.216 0.060 0.318 0.035 0.087 0.090 0.167 0.161 0.236 0.067 0.064 0.149 0.114 0.241 0.147 0.095 0.034 0.197 0.051 0.3 0.050 0.059 0.001 0.119-0.003 0.177-0.010 0.096-0.010 0.188-0.039 0.269-0.085 0.041-0.023 0.079-0.049 0.115-0.078 0.015-0.012 0.035-0.020 0.055-0.020z">
      </path>
      <path
        d="M22.776 25.629c0.002 0.134-0.025 0.267-0.078 0.393-0.047 0.114-0.122 0.218-0.219 0.305s-0.214 0.155-0.344 0.2c-0.285 0.094-0.599 0.094-0.884 0-0.129-0.046-0.245-0.114-0.342-0.201-0.097-0.089-0.172-0.194-0.221-0.308-0.105-0.255-0.105-0.533 0-0.787 0.050-0.115 0.125-0.22 0.221-0.31 0.097-0.084 0.214-0.15 0.342-0.193 0.284-0.096 0.6-0.096 0.884 0 0.129 0.046 0.246 0.114 0.343 0.201 0.096 0.088 0.17 0.191 0.22 0.304 0.054 0.127 0.080 0.261 0.078 0.395zM22.47 25.629c0.002-0.107-0.016-0.214-0.055-0.316-0.033-0.087-0.086-0.168-0.156-0.236-0.068-0.065-0.152-0.116-0.246-0.149-0.207-0.069-0.436-0.069-0.643 0-0.094 0.033-0.178 0.084-0.246 0.149-0.071 0.068-0.125 0.149-0.157 0.236-0.074 0.206-0.074 0.426 0 0.632 0.033 0.087 0.086 0.168 0.157 0.236 0.068 0.065 0.152 0.115 0.246 0.148 0.207 0.067 0.435 0.067 0.643 0 0.093-0.033 0.177-0.083 0.246-0.148 0.070-0.069 0.123-0.149 0.156-0.236 0.039-0.102 0.058-0.209 0.055-0.316z">
      </path>
      <path
        d="M25.067 25.96l0.030 0.071c0.012-0.025 0.022-0.048 0.033-0.071 0.011-0.024 0.024-0.047 0.038-0.070l0.743-1.174c0.015-0.020 0.028-0.033 0.042-0.037 0.020-0.005 0.040-0.007 0.061-0.006h0.22v1.909h-0.26v-1.404c0-0.018 0-0.038 0-0.059-0.001-0.022-0.001-0.044 0-0.066l-0.747 1.19c-0.009 0.018-0.025 0.033-0.044 0.043s-0.041 0.016-0.064 0.016h-0.042c-0.023 0-0.045-0.005-0.064-0.016s-0.034-0.026-0.044-0.044l-0.769-1.198c0 0.023 0 0.046 0 0.068s0 0.043 0 0.061v1.404h-0.252v-1.905h0.22c0.021-0.001 0.041 0.001 0.061 0.006 0.018 0.008 0.032 0.021 0.041 0.037l0.759 1.175c0.015 0.022 0.028 0.045 0.038 0.068z">
      </path>
      <path
        d="M27.864 25.865v0.715h-0.291v-1.906h0.649c0.122-0.002 0.244 0.012 0.362 0.042 0.094 0.023 0.181 0.064 0.256 0.119 0.065 0.052 0.114 0.116 0.145 0.187 0.034 0.078 0.051 0.161 0.049 0.244 0.001 0.084-0.017 0.167-0.054 0.244-0.035 0.073-0.089 0.138-0.157 0.191-0.075 0.057-0.162 0.1-0.257 0.126-0.113 0.031-0.232 0.046-0.35 0.044l-0.352-0.005zM27.864 25.66h0.352c0.076 0.001 0.153-0.009 0.225-0.029 0.060-0.018 0.115-0.046 0.163-0.082 0.044-0.035 0.078-0.078 0.099-0.126 0.024-0.051 0.036-0.105 0.035-0.16 0.003-0.053-0.007-0.106-0.029-0.155s-0.057-0.094-0.102-0.13c-0.111-0.075-0.251-0.112-0.391-0.102h-0.352v0.786z">
      </path>
      <path
        d="M31.772 26.583h-0.23c-0.023 0.001-0.046-0.006-0.064-0.018-0.017-0.012-0.029-0.027-0.038-0.044l-0.198-0.461h-0.993l-0.205 0.461c-0.008 0.017-0.020 0.032-0.036 0.043-0.018 0.013-0.042 0.020-0.065 0.019h-0.23l0.872-1.909h0.302l0.884 1.909zM30.333 25.874h0.82l-0.346-0.777c-0.026-0.058-0.048-0.118-0.065-0.179l-0.034 0.1c-0.010 0.030-0.022 0.058-0.032 0.081l-0.343 0.776z">
      </path>
      <path
        d="M33.029 24.682c0.017 0.008 0.032 0.020 0.044 0.034l1.272 1.439c0-0.023 0-0.046 0-0.067s0-0.043 0-0.063v-1.352h0.26v1.909h-0.145c-0.021 0.001-0.041-0.003-0.060-0.011-0.018-0.009-0.034-0.021-0.047-0.035l-1.271-1.438c0.001 0.022 0.001 0.044 0 0.066 0 0.021 0 0.040 0 0.058v1.361h-0.26v-1.909h0.154c0.018-0 0.036 0.003 0.052 0.009z">
      </path>
      <path
        d="M36.748 25.823v0.758h-0.291v-0.758l-0.804-1.15h0.26c0.022-0.001 0.045 0.005 0.063 0.016 0.016 0.012 0.029 0.027 0.039 0.043l0.503 0.742c0.020 0.032 0.038 0.061 0.052 0.088s0.026 0.054 0.036 0.081l0.038-0.082c0.014-0.030 0.031-0.059 0.049-0.087l0.496-0.747c0.010-0.015 0.023-0.028 0.038-0.040 0.017-0.013 0.040-0.020 0.063-0.019h0.263l-0.806 1.155z">
      </path>
      <path
        d="M24.923 21.47c0.127 0.014 0.255 0.025 0.384 0.035 1.962-0.763 3.622-2.011 4.772-3.588s1.74-3.415 1.695-5.282l-2.162-1.879c0.44 1.988 0.234 4.043-0.594 5.935s-2.245 3.547-4.094 4.779z">
      </path>
      <path
        d="M24.151 21.383l0.058 0.010c1.975-1.228 3.482-2.942 4.323-4.921s0.981-4.133 0.4-6.181l-3.080-2.676c1.246 2.2 1.747 4.661 1.446 7.098s-1.393 4.75-3.147 6.67z">
      </path>
      <path
        d="M34.596 14.841c-0.523 2.052-1.794 3.902-3.624 5.276-0.534 0.404-1.111 0.763-1.722 1.074 1.49-0.38 2.859-1.053 4.003-1.966s2.030-2.042 2.592-3.3l-1.249-1.084z">
      </path>
      <path
        d="M34.106 14.539l-1.778-1.545c-0.034 1.762-0.61 3.483-1.669 4.986s-2.562 2.731-4.352 3.559h0.009c0.399-0 0.798-0.021 1.194-0.062 1.673-0.593 3.151-1.537 4.303-2.748s1.94-2.65 2.295-4.189z">
      </path>
      <path
        d="M24.409 6.486l-2.122-1.846c-1.897 0.637-3.528 1.756-4.68 3.212s-1.772 3.179-1.778 4.946v0c0.007 1.952 0.763 3.846 2.149 5.383s3.322 2.628 5.501 3.101c1.946-2.060 3.085-4.605 3.252-7.266s-0.647-5.299-2.323-7.53z">
      </path>
      <path
        d="M39.008 14.255c-0.008-2.316-1.070-4.535-2.955-6.173s-4.439-2.561-7.105-2.567c-1.232-0.001-2.453 0.196-3.602 0.582l12.99 11.286c0.445-0.998 0.673-2.058 0.672-3.128z">
      </path>
    </symbol>
    <symbol id="icon-Logo-3" viewBox="0 0 57 32">
      <path stroke-linejoin="miter" stroke-linecap="butt" stroke-miterlimit="4" stroke-width="0.5333"
        d="M12.876 11.521h0.002c1.162 0 2.049 0.831 2.049 1.791v0.001c0 0.961-0.887 1.791-2.049 1.791h-0.002c-1.162 0-2.049-0.831-2.049-1.791v-0.001c0-0.961 0.887-1.791 2.049-1.791z">
      </path>
      <path stroke-linejoin="miter" stroke-linecap="butt" stroke-miterlimit="4" stroke-width="0.5333"
        d="M17.104 18.967c-0.104 0.014-0.196 0.026-0.273 0.036v-8.406c0.004-1.498 0.674-2.94 1.878-4.010s2.844-1.678 4.56-1.681c1.715 0.004 3.353 0.611 4.558 1.681 1.203 1.069 1.874 2.512 1.877 4.009 0 0 0 0 0 0v0.001c0 0 0 0 0 0-0 1.753-0.794 3.152-2.010 4.277-1.221 1.129-2.861 1.971-4.521 2.592-1.657 0.62-3.317 1.013-4.564 1.251-0.623 0.119-1.142 0.199-1.505 0.249z">
      </path>
      <path stroke-linejoin="miter" stroke-linecap="butt" stroke-miterlimit="4" stroke-width="0.5333"
        d="M12.018 22.159c-0-0.275-0.092-0.54-0.259-0.763s-0.401-0.391-0.669-0.49-0.561-0.124-0.844-0.074c-0.283 0.050-0.546 0.174-0.756 0.36s-0.357 0.428-0.417 0.697c-0.060 0.269-0.029 0.547 0.088 0.798s0.312 0.459 0.555 0.604c0.168 0.1 0.354 0.166 0.548 0.198v0.026h0.267c0.192 0 0.382-0.034 0.561-0.1s0.342-0.163 0.482-0.287c0.139-0.124 0.252-0.274 0.329-0.441s0.117-0.347 0.116-0.529zM12.018 22.159c0-0 0-0 0-0.001l-0.267 0.001h0.267c0-0 0-0 0-0.001zM14.83 16.418c0.035-0.005 0.067-0.009 0.098-0.013v5.756c0 0 0 0 0 0-0.003 1.017-0.459 1.999-1.28 2.728s-1.942 1.147-3.116 1.15c-1.175-0.003-2.295-0.42-3.117-1.151s-1.277-1.712-1.28-2.729c0-1.191 0.538-2.145 1.372-2.915 0.839-0.775 1.969-1.357 3.119-1.787 1.147-0.429 2.297-0.702 3.163-0.867 0.432-0.082 0.792-0.138 1.043-0.173z">
      </path>
      <path
        d="M19.056 21.302v2.275h-0.469v-2.275h0.469zM19.962 22.274v0.366h-1.034v-0.366h1.034zM20.072 21.302v0.367h-1.144v-0.367h1.144zM22.212 22.386v0.108c0 0.173-0.023 0.328-0.070 0.466s-0.113 0.255-0.198 0.352c-0.085 0.096-0.187 0.169-0.306 0.22-0.118 0.051-0.248 0.077-0.392 0.077s-0.273-0.026-0.392-0.077c-0.118-0.051-0.22-0.124-0.306-0.22-0.086-0.097-0.154-0.214-0.202-0.352s-0.070-0.293-0.070-0.466v-0.108c0-0.174 0.023-0.329 0.070-0.466 0.047-0.137 0.113-0.255 0.198-0.352 0.086-0.097 0.189-0.171 0.306-0.222 0.119-0.051 0.25-0.077 0.392-0.077 0.144 0 0.274 0.026 0.392 0.077 0.119 0.051 0.221 0.125 0.306 0.222 0.086 0.097 0.153 0.214 0.2 0.352 0.048 0.136 0.072 0.292 0.072 0.466zM21.739 22.494v-0.111c0-0.121-0.011-0.227-0.033-0.319s-0.054-0.169-0.097-0.231-0.095-0.109-0.156-0.141c-0.061-0.032-0.132-0.048-0.211-0.048s-0.149 0.016-0.211 0.048c-0.060 0.031-0.112 0.078-0.155 0.141-0.042 0.063-0.073 0.14-0.095 0.231s-0.033 0.198-0.033 0.319v0.111c0 0.12 0.011 0.226 0.033 0.319 0.022 0.092 0.054 0.169 0.097 0.233 0.043 0.063 0.095 0.11 0.156 0.142s0.132 0.048 0.211 0.048c0.079 0 0.149-0.016 0.211-0.048s0.113-0.080 0.155-0.142c0.042-0.064 0.073-0.141 0.095-0.233s0.033-0.199 0.033-0.319zM23.734 22.982c0-0.041-0.006-0.077-0.019-0.109-0.011-0.033-0.033-0.064-0.066-0.091-0.032-0.028-0.078-0.056-0.136-0.083s-0.134-0.055-0.227-0.084c-0.103-0.033-0.201-0.071-0.294-0.112-0.092-0.042-0.173-0.090-0.244-0.145-0.070-0.056-0.125-0.121-0.166-0.195-0.040-0.074-0.059-0.16-0.059-0.258 0-0.095 0.021-0.181 0.063-0.258 0.042-0.078 0.1-0.145 0.175-0.2 0.075-0.056 0.164-0.099 0.266-0.13 0.103-0.030 0.216-0.045 0.339-0.045 0.168 0 0.314 0.030 0.439 0.091s0.222 0.143 0.291 0.248c0.070 0.105 0.105 0.226 0.105 0.361h-0.466c0-0.067-0.014-0.125-0.042-0.175-0.027-0.051-0.069-0.091-0.125-0.12-0.055-0.029-0.125-0.044-0.209-0.044-0.081 0-0.149 0.013-0.203 0.038-0.054 0.024-0.095 0.057-0.122 0.098-0.027 0.041-0.041 0.086-0.041 0.137 0 0.039 0.009 0.073 0.028 0.105 0.020 0.031 0.049 0.060 0.088 0.088s0.086 0.053 0.142 0.077c0.056 0.024 0.121 0.047 0.195 0.070 0.124 0.038 0.233 0.080 0.327 0.127 0.095 0.047 0.174 0.099 0.238 0.158s0.111 0.124 0.144 0.198c0.032 0.074 0.048 0.158 0.048 0.252 0 0.099-0.019 0.188-0.058 0.266s-0.094 0.144-0.167 0.198c-0.073 0.054-0.16 0.095-0.261 0.123s-0.214 0.042-0.339 0.042c-0.113 0-0.223-0.015-0.333-0.044-0.109-0.030-0.209-0.076-0.298-0.136-0.089-0.060-0.159-0.137-0.213-0.231s-0.080-0.205-0.080-0.333h0.47c0 0.071 0.011 0.131 0.033 0.18s0.053 0.089 0.092 0.119c0.041 0.030 0.089 0.052 0.144 0.066 0.056 0.014 0.118 0.020 0.184 0.020 0.081 0 0.148-0.011 0.2-0.034 0.053-0.023 0.092-0.055 0.117-0.095s0.039-0.086 0.039-0.137zM25.539 21.302v2.275h-0.467v-2.275h0.467zM26.239 21.302v0.367h-1.856v-0.367h1.856zM28.033 23.211v0.366h-1.211v-0.366h1.211zM26.975 21.302v2.275h-0.469v-2.275h0.469zM27.875 22.229v0.356h-1.053v-0.356h1.053zM28.031 21.302v0.367h-1.209v-0.367h1.209zM28.306 21.302h0.848c0.174 0 0.323 0.026 0.448 0.078 0.126 0.052 0.223 0.129 0.291 0.231s0.102 0.228 0.102 0.377c0 0.122-0.021 0.227-0.063 0.314-0.041 0.086-0.098 0.159-0.173 0.217-0.074 0.057-0.161 0.103-0.261 0.137l-0.148 0.078h-0.738l-0.003-0.366h0.548c0.082 0 0.151-0.015 0.205-0.044s0.095-0.070 0.122-0.122c0.028-0.052 0.042-0.112 0.042-0.181 0-0.073-0.014-0.136-0.041-0.189s-0.068-0.094-0.123-0.122c-0.055-0.028-0.124-0.042-0.208-0.042h-0.38v1.908h-0.469v-2.275zM29.578 23.577l-0.519-1.014 0.495-0.003 0.525 0.995v0.022h-0.502zM32.039 22.766h-0.58v-0.366h0.58c0.090 0 0.163-0.015 0.219-0.044 0.056-0.030 0.097-0.072 0.123-0.125s0.039-0.113 0.039-0.18c0-0.068-0.013-0.131-0.039-0.189s-0.067-0.105-0.123-0.141-0.129-0.053-0.219-0.053h-0.417v1.908h-0.469v-2.275h0.886c0.178 0 0.331 0.032 0.458 0.097 0.128 0.064 0.226 0.152 0.294 0.264s0.102 0.241 0.102 0.386c0 0.147-0.034 0.274-0.102 0.381s-0.166 0.19-0.294 0.248c-0.127 0.058-0.28 0.088-0.458 0.088zM34.742 23.211v0.366h-1.211v-0.366h1.211zM33.684 21.302v2.275h-0.469v-2.275h0.469zM34.584 22.229v0.356h-1.053v-0.356h1.053zM34.74 21.302v0.367h-1.209v-0.367h1.209zM36.064 21.302v2.275h-0.467v-2.275h0.467zM36.764 21.302v0.367h-1.856v-0.367h1.856zM38.558 23.211v0.366h-1.211v-0.366h1.211zM37.5 21.302v2.275h-0.469v-2.275h0.469zM38.4 22.229v0.356h-1.053v-0.356h1.053zM38.556 21.302v0.367h-1.209v-0.367h1.209zM38.831 21.302h0.848c0.174 0 0.323 0.026 0.448 0.078 0.126 0.052 0.223 0.129 0.291 0.231s0.102 0.228 0.102 0.377c0 0.122-0.021 0.227-0.063 0.314-0.041 0.086-0.098 0.159-0.173 0.217-0.074 0.057-0.161 0.103-0.261 0.137l-0.148 0.078h-0.737l-0.003-0.366h0.548c0.082 0 0.151-0.015 0.205-0.044s0.095-0.070 0.122-0.122c0.028-0.052 0.042-0.112 0.042-0.181 0-0.073-0.014-0.136-0.041-0.189s-0.068-0.094-0.123-0.122c-0.055-0.028-0.124-0.042-0.208-0.042h-0.38v1.908h-0.469v-2.275zM40.103 23.577l-0.519-1.014 0.495-0.003 0.525 0.995v0.022h-0.502zM42.065 22.982c0-0.041-0.006-0.077-0.019-0.109-0.011-0.033-0.033-0.064-0.066-0.091-0.032-0.028-0.078-0.056-0.136-0.083s-0.134-0.055-0.227-0.084c-0.103-0.033-0.201-0.071-0.294-0.112-0.092-0.042-0.173-0.090-0.244-0.145-0.070-0.056-0.125-0.121-0.166-0.195-0.040-0.074-0.059-0.16-0.059-0.258 0-0.095 0.021-0.181 0.063-0.258 0.042-0.078 0.1-0.145 0.175-0.2 0.075-0.056 0.164-0.099 0.266-0.13 0.103-0.030 0.216-0.045 0.339-0.045 0.168 0 0.314 0.030 0.439 0.091s0.222 0.143 0.291 0.248c0.070 0.105 0.105 0.226 0.105 0.361h-0.466c0-0.067-0.014-0.125-0.042-0.175-0.027-0.051-0.069-0.091-0.125-0.12-0.055-0.029-0.125-0.044-0.209-0.044-0.081 0-0.149 0.013-0.203 0.038-0.054 0.024-0.095 0.057-0.122 0.098-0.027 0.041-0.041 0.086-0.041 0.137 0 0.039 0.009 0.073 0.028 0.105 0.020 0.031 0.049 0.060 0.088 0.088s0.086 0.053 0.142 0.077c0.056 0.024 0.121 0.047 0.195 0.070 0.124 0.038 0.233 0.080 0.327 0.127 0.095 0.047 0.174 0.099 0.237 0.158s0.111 0.124 0.144 0.198c0.032 0.074 0.048 0.158 0.048 0.252 0 0.099-0.019 0.188-0.058 0.266s-0.094 0.144-0.167 0.198c-0.073 0.054-0.16 0.095-0.261 0.123s-0.214 0.042-0.339 0.042c-0.113 0-0.223-0.015-0.333-0.044-0.109-0.030-0.209-0.076-0.298-0.136-0.089-0.060-0.159-0.137-0.213-0.231s-0.080-0.205-0.080-0.333h0.47c0 0.071 0.011 0.131 0.033 0.18s0.053 0.089 0.092 0.119c0.041 0.030 0.089 0.052 0.144 0.066 0.056 0.014 0.118 0.020 0.184 0.020 0.081 0 0.148-0.011 0.2-0.034 0.053-0.023 0.092-0.055 0.117-0.095 0.026-0.041 0.039-0.086 0.039-0.137z">
      </path>
      <path
        d="M19.056 21.302h0.533v-0.533h-0.533v0.533zM19.056 23.577v0.533h0.533v-0.533h-0.533zM18.587 23.577h-0.533v0.533h0.533v-0.533zM18.587 21.302v-0.533h-0.533v0.533h0.533zM19.962 22.274h0.533v-0.533h-0.533v0.533zM19.962 22.64v0.533h0.533v-0.533h-0.533zM18.928 22.64h-0.533v0.533h0.533v-0.533zM18.928 22.274v-0.533h-0.533v0.533h0.533zM20.072 21.302h0.533v-0.533h-0.533v0.533zM20.072 21.669v0.533h0.533v-0.533h-0.533zM18.928 21.669h-0.533v0.533h0.533v-0.533zM18.928 21.302v-0.533h-0.533v0.533h0.533zM18.523 21.302v2.275h1.067v-2.275h-1.067zM19.056 23.044h-0.469v1.067h0.469v-1.067zM19.121 23.577v-2.275h-1.067v2.275h1.067zM18.587 21.835h0.469v-1.067h-0.469v1.067zM19.429 22.274v0.366h1.067v-0.366h-1.067zM19.962 22.106h-1.034v1.067h1.034v-1.067zM19.461 22.64v-0.366h-1.067v0.366h1.067zM18.928 22.807h1.034v-1.067h-1.034v1.067zM19.538 21.302v0.367h1.067v-0.367h-1.067zM20.072 21.136h-1.144v1.067h1.144v-1.067zM19.461 21.669v-0.367h-1.067v0.367h1.067zM18.928 21.835h1.144v-1.067h-1.144v1.067zM21.944 23.311l0.398 0.355 0.002-0.002-0.4-0.353zM21.637 23.532l-0.211-0.49-0.002 0.001 0.212 0.489zM20.853 23.532l-0.212 0.489 0.002 0.001 0.211-0.49zM20.547 23.311l-0.398 0.355 0.002 0.002 0.396-0.357zM20.345 22.96l-0.505 0.172 0.001 0.003 0.504-0.176zM20.345 21.921l0.504 0.173 0-0.001-0.505-0.172zM20.544 21.569l-0.398-0.355-0.002 0.002 0.4 0.353zM20.85 21.347l-0.211-0.49-0.002 0.001 0.212 0.489zM21.634 21.347l-0.212 0.489 0.002 0.001 0.211-0.49zM21.94 21.569l-0.4 0.353 0.002 0.002 0.398-0.355zM22.14 21.921l-0.505 0.172 0.002 0.005 0.503-0.177zM21.453 21.693l-0.248 0.472 0.006 0.003 0.242-0.475zM21.031 21.693l0.245 0.474 0.003-0.002-0.248-0.472zM20.876 21.833l-0.44-0.301-0.003 0.005 0.444 0.296zM20.781 22.813l-0.519 0.122 0 0.001 0.519-0.124zM20.878 23.046l-0.443 0.298 0.002 0.003 0.44-0.301zM21.611 23.046l0.444 0.296 0.002-0.003-0.446-0.292zM21.706 22.813l0.519 0.124 0-0.001-0.519-0.122zM21.679 22.386v0.108h1.067v-0.108h-1.067zM21.679 22.494c0 0.125-0.017 0.221-0.042 0.294l1.010 0.344c0.069-0.202 0.099-0.417 0.099-0.638h-1.067zM21.637 22.788c-0.027 0.079-0.060 0.133-0.094 0.171l0.8 0.705c0.137-0.156 0.236-0.336 0.303-0.532l-1.010-0.344zM21.545 22.957c-0.033 0.037-0.071 0.065-0.119 0.085l0.421 0.98c0.19-0.082 0.356-0.201 0.494-0.355l-0.796-0.71zM21.425 23.042c-0.043 0.019-0.1 0.033-0.18 0.033v1.067c0.208 0 0.412-0.037 0.604-0.121l-0.424-0.979zM21.245 23.075c-0.078 0-0.136-0.014-0.182-0.033l-0.421 0.98c0.192 0.082 0.395 0.12 0.603 0.12v-1.067zM21.065 23.042c-0.047-0.020-0.087-0.049-0.122-0.088l-0.792 0.715c0.137 0.152 0.302 0.271 0.49 0.352l0.424-0.979zM20.945 22.956c-0.034-0.039-0.068-0.093-0.096-0.172l-1.007 0.351c0.068 0.196 0.169 0.376 0.307 0.531l0.796-0.71zM20.85 22.788c-0.025-0.073-0.042-0.168-0.042-0.294h-1.067c0 0.221 0.030 0.435 0.099 0.638l1.010-0.344zM20.808 22.494v-0.108h-1.067v0.108h1.067zM20.808 22.386c0-0.127 0.017-0.222 0.041-0.292l-1.009-0.346c-0.070 0.202-0.099 0.418-0.099 0.639h1.067zM20.85 22.093c0.027-0.079 0.060-0.133 0.094-0.171l-0.8-0.705c-0.137 0.156-0.236 0.336-0.303 0.532l1.010 0.344zM20.942 21.924c0.036-0.040 0.075-0.068 0.121-0.088l-0.424-0.979c-0.189 0.082-0.355 0.202-0.492 0.356l0.796 0.71zM21.060 21.837c0.046-0.020 0.104-0.033 0.182-0.033v-1.067c-0.208 0-0.411 0.037-0.603 0.12l0.421 0.98zM21.242 21.804c0.080 0 0.137 0.014 0.18 0.033l0.424-0.979c-0.192-0.083-0.396-0.121-0.604-0.121v1.067zM21.424 21.837c0.046 0.020 0.084 0.047 0.117 0.085l0.8-0.705c-0.138-0.156-0.304-0.277-0.496-0.359l-0.421 0.98zM21.543 21.924c0.034 0.038 0.067 0.091 0.093 0.169l1.010-0.344c-0.067-0.197-0.168-0.378-0.307-0.535l-0.796 0.71zM21.637 22.098c0.024 0.069 0.042 0.163 0.042 0.289h1.067c0-0.222-0.031-0.439-0.102-0.642l-1.006 0.353zM22.272 22.494v-0.111h-1.067v0.111h1.067zM22.272 22.383c0-0.151-0.014-0.301-0.047-0.442l-1.038 0.248c0.010 0.042 0.018 0.105 0.018 0.195h1.067zM22.225 21.941c-0.033-0.14-0.088-0.281-0.175-0.408l-0.881 0.602c-0.002-0.003 0.008 0.011 0.018 0.054l1.038-0.248zM22.050 21.532c-0.088-0.129-0.206-0.239-0.355-0.315l-0.483 0.951c-0.012-0.006-0.022-0.013-0.030-0.020s-0.012-0.012-0.012-0.014l0.881-0.602zM21.701 21.221c-0.148-0.078-0.306-0.11-0.459-0.11v1.067c0.003 0 0 0-0.007-0.001s-0.018-0.005-0.030-0.011l0.496-0.944zM21.242 21.111c-0.153 0-0.311 0.032-0.459 0.11l0.496 0.944c-0.012 0.006-0.022 0.010-0.030 0.011s-0.011 0.001-0.007 0.001v-1.067zM20.786 21.219c-0.147 0.076-0.263 0.186-0.35 0.313l0.881 0.602c-0 0-0.003 0.005-0.011 0.012s-0.018 0.014-0.030 0.020l-0.49-0.947zM20.433 21.537c-0.084 0.126-0.137 0.265-0.17 0.403l1.038 0.248c0.011-0.045 0.021-0.061 0.020-0.059l-0.888-0.592zM20.262 21.941c-0.034 0.142-0.047 0.291-0.047 0.442h1.067c0-0.090 0.008-0.153 0.018-0.195l-1.038-0.248zM20.215 22.383v0.111h1.067v-0.111h-1.067zM20.215 22.494c0 0.151 0.014 0.3 0.047 0.441l1.038-0.245c-0.010-0.044-0.019-0.108-0.019-0.196h-1.067zM20.262 22.937c0.033 0.14 0.088 0.279 0.173 0.407l0.885-0.595c0 0-0.003-0.004-0.006-0.013s-0.009-0.024-0.014-0.046l-1.038 0.248zM20.438 23.347c0.087 0.128 0.203 0.237 0.349 0.313l0.496-0.944c0.010 0.005 0.019 0.012 0.026 0.018s0.010 0.011 0.010 0.011l-0.881 0.602zM20.786 23.66c0.148 0.078 0.306 0.11 0.459 0.11v-1.067c-0.003 0-0-0 0.007 0.001s0.018 0.005 0.030 0.011l-0.496 0.944zM21.245 23.77c0.153 0 0.311-0.032 0.459-0.11l-0.496-0.944c0.012-0.006 0.022-0.010 0.030-0.011s0.011-0.001 0.007-0.001v1.067zM21.704 23.66c0.147-0.077 0.263-0.188 0.35-0.319l-0.888-0.592c0.001-0.002 0.005-0.007 0.013-0.014s0.018-0.014 0.028-0.020l0.496 0.944zM22.057 23.338c0.083-0.126 0.135-0.264 0.168-0.401l-1.038-0.248c-0.011 0.046-0.022 0.063-0.023 0.064l0.892 0.585zM22.225 22.935c0.033-0.142 0.047-0.29 0.047-0.441h-1.067c0 0.089-0.008 0.152-0.019 0.196l1.038 0.245zM23.715 22.872l-0.504 0.173 0.003 0.010 0.004 0.009 0.497-0.193zM23.65 22.782l-0.35 0.402 0.004 0.003 0.004 0.003 0.343-0.409zM23.287 22.614l-0.164 0.508 0.004 0.001 0.16-0.509zM22.994 22.502l-0.221 0.486 0.002 0.001 0.219-0.486zM22.75 22.357l-0.335 0.415 0.007 0.005 0.328-0.421zM22.584 22.161l-0.47 0.252 0.003 0.005 0.467-0.257zM22.587 21.646l0.469 0.254 0.001-0.003-0.471-0.251zM22.762 21.446l0.316 0.43 0.004-0.003-0.32-0.427zM23.028 21.316l-0.15-0.512-0.001 0 0.151 0.511zM24.097 21.61l-0.446 0.292 0.002 0.003 0.444-0.295zM24.201 21.971v0.533h0.533v-0.533h-0.533zM23.736 21.971h-0.533v0.533h0.533v-0.533zM23.694 21.796l-0.471 0.25 0.003 0.006 0.003 0.006 0.465-0.261zM23.569 21.675l-0.249 0.472 0.004 0.002 0.245-0.473zM23.156 21.669l0.216 0.488 0.004-0.002 0.004-0.002-0.223-0.484zM23.034 21.768l0.444 0.296 0.003-0.005-0.447-0.291zM23.022 22.010l-0.457 0.274 0.003 0.006 0.003 0.005 0.451-0.285zM23.447 22.244l-0.158 0.509 0.003 0.001 0.154-0.51zM23.773 22.371l-0.238 0.477 0.002 0.001 0.236-0.478zM23.045 23.565l-0.142 0.514 0.005 0.001 0.137-0.515zM22.747 23.429l-0.301 0.441 0.002 0.002 0.298-0.442zM22.454 22.865v-0.533h-0.533v0.533h0.533zM22.925 22.865h0.533v-0.533h-0.533v0.533zM23.050 23.163l-0.324 0.424 0.005 0.004 0.318-0.428zM23.194 23.229l-0.127 0.518 0.002 0.001 0.125-0.518zM23.578 23.215l-0.211-0.49-0.004 0.002 0.215 0.488zM23.695 23.119l-0.449-0.288-0.005 0.008 0.454 0.28zM24.268 22.982c0-0.095-0.015-0.199-0.055-0.302l-0.995 0.385c-0.015-0.039-0.017-0.069-0.017-0.083h1.067zM24.22 22.699c-0.049-0.141-0.135-0.249-0.227-0.326l-0.686 0.817c-0.027-0.023-0.070-0.070-0.096-0.145l1.009-0.347zM24 22.38c-0.084-0.073-0.178-0.126-0.262-0.164l-0.449 0.967c0.007 0.003 0.013 0.006 0.017 0.008s0.007 0.004 0.008 0.004c0.001 0.001 0 0-0.002-0.001s-0.007-0.005-0.013-0.010l0.701-0.804zM23.738 22.215c-0.087-0.040-0.186-0.076-0.291-0.109l-0.32 1.017c0.081 0.025 0.132 0.046 0.162 0.059l0.449-0.967zM23.451 22.107c-0.086-0.028-0.165-0.058-0.239-0.091l-0.437 0.973c0.112 0.050 0.228 0.095 0.348 0.134l0.328-1.015zM23.214 22.016c-0.058-0.026-0.102-0.054-0.137-0.080l-0.656 0.841c0.108 0.084 0.226 0.153 0.351 0.21l0.441-0.971zM23.085 21.941c-0.019-0.015-0.028-0.028-0.033-0.037l-0.935 0.514c0.076 0.139 0.178 0.257 0.298 0.354l0.669-0.831zM23.054 21.91c0.002 0.003 0.003 0.006 0.004 0.008s0.001 0.004 0.001 0.004c0 0-0.001-0.005-0.001-0.018h-1.067c0 0.171 0.035 0.346 0.122 0.509l0.94-0.503zM23.058 21.904c0-0.008 0.001-0.011 0.001-0.010s-0 0.001-0.001 0.002-0.001 0.002-0.001 0.003l-0.938-0.507c-0.087 0.161-0.127 0.336-0.127 0.511h1.067zM23.058 21.897c0.002-0.004 0.006-0.011 0.021-0.021l-0.632-0.859c-0.136 0.1-0.248 0.226-0.329 0.378l0.941 0.502zM23.082 21.872c0.018-0.013 0.048-0.030 0.097-0.045l-0.303-1.023c-0.155 0.046-0.302 0.115-0.434 0.214l0.64 0.853zM23.178 21.828c0.048-0.014 0.11-0.024 0.189-0.024v-1.067c-0.166 0-0.331 0.020-0.489 0.067l0.3 1.024zM23.367 21.804c0.104 0 0.168 0.019 0.207 0.038l0.464-0.96c-0.211-0.102-0.44-0.144-0.671-0.144v1.067zM23.574 21.842c0.047 0.023 0.066 0.044 0.076 0.060l0.893-0.584c-0.127-0.195-0.302-0.339-0.505-0.437l-0.464 0.96zM23.652 21.905c0.008 0.011 0.016 0.028 0.016 0.066h1.067c0-0.232-0.062-0.457-0.194-0.656l-0.889 0.59zM24.201 21.437h-0.466v1.067h0.466v-1.067zM24.269 21.971c0-0.143-0.031-0.295-0.111-0.436l-0.93 0.523c-0.024-0.042-0.026-0.077-0.026-0.086h1.067zM24.165 21.546c-0.083-0.156-0.208-0.27-0.351-0.344l-0.491 0.947c-0.013-0.007-0.031-0.018-0.051-0.037s-0.037-0.042-0.050-0.066l0.942-0.5zM23.818 21.204c-0.154-0.081-0.316-0.106-0.459-0.106v1.067c0.012 0 0.013 0.001 0.007-0s-0.024-0.006-0.046-0.018l0.498-0.943zM23.359 21.098c-0.132 0-0.282 0.020-0.427 0.087l0.447 0.968c-0.019 0.009-0.032 0.012-0.035 0.012s0.001-0.001 0.015-0.001v-1.067zM22.94 21.181c-0.13 0.058-0.26 0.152-0.353 0.296l0.894 0.581c-0.039 0.061-0.088 0.089-0.11 0.099l-0.431-0.976zM22.59 21.472c-0.088 0.132-0.13 0.282-0.13 0.433h1.067c0 0.022-0.003 0.049-0.012 0.078s-0.022 0.057-0.037 0.080l-0.888-0.592zM22.46 21.905c0 0.129 0.033 0.26 0.104 0.379l0.915-0.549c0.034 0.056 0.048 0.117 0.048 0.17h-1.067zM22.571 22.295c0.066 0.104 0.151 0.182 0.231 0.238l0.613-0.873c0.004 0.003 0.030 0.022 0.056 0.064l-0.901 0.571zM22.803 22.534c0.077 0.054 0.159 0.096 0.24 0.131l0.418-0.981c-0.015-0.006-0.026-0.012-0.034-0.016s-0.011-0.006-0.011-0.006l-0.613 0.873zM23.042 22.665c0.077 0.033 0.159 0.062 0.246 0.089l0.316-1.019c-0.061-0.019-0.108-0.036-0.144-0.052l-0.418 0.981zM23.292 22.755c0.102 0.031 0.181 0.063 0.242 0.093l0.477-0.954c-0.126-0.063-0.264-0.116-0.411-0.16l-0.309 1.021zM23.537 22.849c0.059 0.029 0.094 0.055 0.113 0.073l0.721-0.786c-0.108-0.099-0.232-0.179-0.362-0.243l-0.473 0.956zM23.65 22.921c0.013 0.012 0.015 0.018 0.016 0.019l0.978-0.427c-0.064-0.147-0.157-0.273-0.272-0.378l-0.721 0.786zM23.666 22.94c-0.002-0.003 0.004 0.006 0.004 0.038h1.067c0-0.155-0.027-0.314-0.093-0.465l-0.978 0.427zM23.67 22.979c0 0.015-0.001 0.023-0.002 0.027s-0.001 0.004-0.001 0.003l0.957 0.472c0.079-0.161 0.113-0.332 0.113-0.502h-1.067zM23.667 23.008c-0 0.001-0 0.001-0 0.001s0-0 0-0-0 0.001-0.001 0.002-0.003 0.002-0.005 0.004l0.636 0.856c0.138-0.102 0.25-0.233 0.327-0.391l-0.957-0.472zM23.66 23.015c-0.013 0.010-0.038 0.025-0.086 0.038l0.286 1.028c0.154-0.043 0.303-0.11 0.436-0.209l-0.636-0.856zM23.574 23.052c-0.047 0.013-0.11 0.023-0.196 0.023v1.067c0.164 0 0.327-0.018 0.482-0.062l-0.286-1.028zM23.378 23.075c-0.066 0-0.131-0.008-0.195-0.026l-0.275 1.031c0.154 0.041 0.311 0.062 0.47 0.062v-1.067zM23.187 23.050c-0.057-0.016-0.103-0.038-0.142-0.064l-0.596 0.884c0.14 0.094 0.292 0.163 0.455 0.208l0.284-1.028zM23.047 22.988c-0.021-0.014-0.036-0.030-0.049-0.054l-0.928 0.526c0.093 0.164 0.22 0.302 0.376 0.409l0.601-0.881zM22.998 22.934c-0.001-0.001-0.003-0.005-0.005-0.015s-0.005-0.028-0.005-0.055h-1.067c0 0.203 0.043 0.408 0.149 0.596l0.928-0.526zM22.454 23.398h0.47v-1.067h-0.47v1.067zM22.392 22.865c0 0.123 0.019 0.262 0.079 0.397l0.974-0.435c0.009 0.019 0.012 0.034 0.013 0.040s0 0.006 0-0.002h-1.067zM22.471 23.262c0.055 0.124 0.14 0.237 0.256 0.325l0.647-0.848c0.037 0.028 0.060 0.062 0.071 0.088l-0.974 0.435zM22.732 23.591c0.104 0.078 0.219 0.127 0.335 0.156l0.254-1.036c0.005 0.001 0.024 0.007 0.047 0.024l-0.636 0.856zM23.069 23.747c0.103 0.025 0.207 0.035 0.309 0.035v-1.067c-0.031 0-0.050-0.003-0.060-0.006l-0.25 1.037zM23.378 23.782c0.126 0 0.273-0.017 0.415-0.080l-0.43-0.976c0.020-0.009 0.034-0.011 0.035-0.012s-0.004 0.001-0.021 0.001v1.067zM23.789 23.704c0.132-0.057 0.266-0.153 0.36-0.305l-0.908-0.559c0.044-0.071 0.1-0.104 0.126-0.115l0.422 0.979zM24.144 23.407c0.084-0.132 0.123-0.278 0.123-0.425h-1.067c0-0.045 0.013-0.1 0.045-0.15l0.898 0.576zM25.539 21.302h0.533v-0.533h-0.533v0.533zM25.539 23.577v0.533h0.533v-0.533h-0.533zM25.072 23.577h-0.533v0.533h0.533v-0.533zM25.072 21.302v-0.533h-0.533v0.533h0.533zM26.239 21.302h0.533v-0.533h-0.533v0.533zM26.239 21.669v0.533h0.533v-0.533h-0.533zM24.383 21.669h-0.533v0.533h0.533v-0.533zM24.383 21.302v-0.533h-0.533v0.533h0.533zM25.006 21.302v2.275h1.067v-2.275h-1.067zM25.539 23.044h-0.467v1.067h0.467v-1.067zM25.605 23.577v-2.275h-1.067v2.275h1.067zM25.072 21.835h0.467v-1.067h-0.467v1.067zM25.706 21.302v0.367h1.067v-0.367h-1.067zM26.239 21.136h-1.856v1.067h1.856v-1.067zM24.916 21.669v-0.367h-1.067v0.367h1.067zM24.383 21.835h1.856v-1.067h-1.856v1.067zM28.033 23.211h0.533v-0.533h-0.533v0.533zM28.033 23.577v0.533h0.533v-0.533h-0.533zM26.822 23.577h-0.533v0.533h0.533v-0.533zM26.822 23.211v-0.533h-0.533v0.533h0.533zM26.975 21.302h0.533v-0.533h-0.533v0.533zM26.975 23.577v0.533h0.533v-0.533h-0.533zM26.506 23.577h-0.533v0.533h0.533v-0.533zM26.506 21.302v-0.533h-0.533v0.533h0.533zM27.875 22.229h0.533v-0.533h-0.533v0.533zM27.875 22.585v0.533h0.533v-0.533h-0.533zM26.822 22.585h-0.533v0.533h0.533v-0.533zM26.822 22.229v-0.533h-0.533v0.533h0.533zM28.031 21.302h0.533v-0.533h-0.533v0.533zM28.031 21.669v0.533h0.533v-0.533h-0.533zM26.822 21.669h-0.533v0.533h0.533v-0.533zM26.822 21.302v-0.533h-0.533v0.533h0.533zM27.499 23.211v0.366h1.067v-0.366h-1.067zM28.033 23.044h-1.211v1.067h1.211v-1.067zM27.355 23.577v-0.366h-1.067v0.366h1.067zM26.822 23.745h1.211v-1.067h-1.211v1.067zM26.442 21.302v2.275h1.067v-2.275h-1.067zM26.975 23.044h-0.469v1.067h0.469v-1.067zM27.039 23.577v-2.275h-1.067v2.275h1.067zM26.506 21.835h0.469v-1.067h-0.469v1.067zM27.341 22.229v0.356h1.067v-0.356h-1.067zM27.875 22.052h-1.053v1.067h1.053v-1.067zM27.355 22.585v-0.356h-1.067v0.356h1.067zM26.822 22.762h1.053v-1.067h-1.053v1.067zM27.498 21.302v0.367h1.067v-0.367h-1.067zM28.031 21.136h-1.209v1.067h1.209v-1.067zM27.355 21.669v-0.367h-1.067v0.367h1.067zM26.822 21.835h1.209v-1.067h-1.209v1.067zM28.306 21.302v-0.533h-0.533v0.533h0.533zM29.603 21.38l-0.205 0.492 0.002 0.001 0.204-0.493zM29.933 22.302l-0.482-0.229-0.001 0.003 0.483 0.227zM29.759 22.519l0.327 0.422 0.001-0.001-0.327-0.421zM29.498 22.657l-0.173-0.504-0.039 0.013-0.036 0.019 0.248 0.472zM29.35 22.735v0.533h0.132l0.117-0.061-0.248-0.472zM28.612 22.735l-0.533 0.005 0.004 0.529h0.529v-0.533zM28.609 22.369v-0.533h-0.538l0.005 0.538 0.533-0.005zM29.484 22.204l-0.469-0.253-0.002 0.004-0.002 0.004 0.473 0.246zM28.775 21.669v-0.533h-0.533v0.533h0.533zM28.775 23.577v0.533h0.533v-0.533h-0.533zM28.306 23.577h-0.533v0.533h0.533v-0.533zM29.578 23.577l-0.475 0.243 0.149 0.29h0.326v-0.533zM29.059 22.563l-0.003-0.533-0.866 0.005 0.394 0.771 0.475-0.243zM29.555 22.56l0.472-0.249-0.151-0.287-0.324 0.002 0.003 0.533zM30.080 23.555h0.533v-0.132l-0.062-0.117-0.472 0.249zM30.080 23.577v0.533h0.533v-0.533h-0.533zM28.306 21.835h0.848v-1.067h-0.848v1.067zM29.154 21.835c0.123 0 0.199 0.019 0.243 0.037l0.41-0.985c-0.206-0.086-0.428-0.119-0.654-0.119v1.067zM29.399 21.873c0.039 0.016 0.047 0.029 0.050 0.033l0.889-0.59c-0.133-0.2-0.319-0.341-0.531-0.429l-0.407 0.986zM29.449 21.906c0 0 0.003 0.004 0.006 0.015s0.007 0.033 0.007 0.067h1.067c0-0.231-0.053-0.465-0.19-0.671l-0.889 0.59zM29.462 21.988c0 0.031-0.003 0.052-0.005 0.066s-0.005 0.019-0.005 0.019l0.963 0.459c0.083-0.175 0.114-0.362 0.114-0.543h-1.067zM29.45 22.075c-0.005 0.011-0.010 0.017-0.018 0.023l0.655 0.842c0.142-0.11 0.253-0.249 0.329-0.411l-0.965-0.454zM29.433 22.098c-0.022 0.017-0.056 0.037-0.108 0.055l0.347 1.009c0.148-0.051 0.288-0.123 0.414-0.22l-0.653-0.843zM29.25 22.185l-0.148 0.078 0.497 0.944 0.148-0.078-0.497-0.944zM29.35 22.201h-0.738v1.067h0.738v-1.067zM29.146 22.73l-0.003-0.366-1.067 0.009 0.003 0.366 1.067-0.009zM28.609 22.903h0.548v-1.067h-0.548v1.067zM29.158 22.903c0.142 0 0.304-0.025 0.458-0.108l-0.506-0.939c0.045-0.024 0.071-0.020 0.048-0.020v1.067zM29.615 22.795c0.144-0.077 0.263-0.194 0.342-0.345l-0.946-0.492c0.011-0.021 0.026-0.043 0.045-0.062s0.038-0.032 0.053-0.040l0.506 0.939zM29.953 22.457c0.076-0.142 0.106-0.292 0.106-0.435h-1.067c0-0.005 0.002-0.035 0.022-0.072l0.939 0.507zM30.060 22.022c0-0.139-0.026-0.288-0.099-0.431l-0.95 0.484c-0.019-0.037-0.018-0.060-0.018-0.053h1.067zM29.961 21.591c-0.080-0.158-0.205-0.278-0.356-0.355l-0.484 0.95c-0.018-0.009-0.039-0.023-0.060-0.044s-0.038-0.044-0.049-0.067l0.95-0.484zM29.604 21.236c-0.151-0.077-0.31-0.1-0.45-0.1v1.067c0.012 0 0.014 0.001 0.008-0s-0.022-0.005-0.043-0.016l0.484-0.95zM29.154 21.136h-0.38v1.067h0.38v-1.067zM28.241 21.669v1.908h1.067v-1.908h-1.067zM28.775 23.044h-0.469v1.067h0.469v-1.067zM28.839 23.577v-2.275h-1.067v2.275h1.067zM30.053 23.334l-0.519-1.014-0.95 0.486 0.519 1.014 0.95-0.486zM29.063 23.096l0.495-0.003-0.007-1.067-0.495 0.003 0.007 1.067zM29.083 22.809l0.525 0.995 0.943-0.498-0.525-0.995-0.943 0.498zM29.546 23.555v0.022h1.067v-0.022h-1.067zM30.080 23.044h-0.502v1.067h0.502v-1.067zM31.459 22.766h-0.533v0.533h0.533v-0.533zM31.459 22.4v-0.533h-0.533v0.533h0.533zM32.258 22.357l0.245 0.474 0.007-0.004-0.252-0.47zM31.622 21.669v-0.533h-0.533v0.533h0.533zM31.622 23.577v0.533h0.533v-0.533h-0.533zM31.153 23.577h-0.533v0.533h0.533v-0.533zM31.153 21.302v-0.533h-0.533v0.533h0.533zM32.497 21.399l-0.242 0.476 0.005 0.002 0.237-0.478zM32.497 22.679l-0.221-0.485-0.002 0.001 0.222 0.485zM32.039 22.233h-0.58v1.067h0.58v-1.067zM31.993 22.766v-0.366h-1.067v0.366h1.067zM31.459 22.934h0.58v-1.067h-0.58v1.067zM32.039 22.934c0.142 0 0.307-0.022 0.464-0.104l-0.491-0.947c0.023-0.012 0.040-0.016 0.044-0.017s-0.001 0.001-0.017 0.001v1.067zM32.51 22.827c0.146-0.079 0.271-0.199 0.35-0.36l-0.958-0.47c0.012-0.025 0.029-0.048 0.049-0.069s0.040-0.033 0.054-0.041l0.505 0.94zM32.86 22.466c0.066-0.135 0.093-0.277 0.093-0.414h-1.067c0-0.001 0-0.008 0.002-0.018s0.006-0.023 0.013-0.037l0.958 0.47zM32.953 22.052c0-0.138-0.027-0.276-0.085-0.406l-0.974 0.435c-0.003-0.006-0.005-0.013-0.006-0.018s-0.001-0.009-0.001-0.010h1.067zM32.868 21.646c-0.071-0.159-0.185-0.285-0.326-0.375l-0.568 0.903c-0.012-0.008-0.028-0.020-0.044-0.038s-0.028-0.037-0.036-0.056l0.974-0.435zM32.542 21.271c-0.166-0.105-0.347-0.135-0.503-0.135v1.067c0.023 0-0.012 0.005-0.065-0.029l0.568-0.903zM32.039 21.136h-0.417v1.067h0.417v-1.067zM31.088 21.669v1.908h1.067v-1.908h-1.067zM31.622 23.044h-0.469v1.067h0.469v-1.067zM31.686 23.577v-2.275h-1.067v2.275h1.067zM31.153 21.835h0.886v-1.067h-0.886v1.067zM32.039 21.835c0.115 0 0.18 0.021 0.216 0.039l0.483-0.951c-0.218-0.111-0.458-0.155-0.699-0.155v1.067zM32.26 21.877c0.045 0.023 0.063 0.044 0.074 0.061l0.914-0.55c-0.125-0.207-0.303-0.362-0.514-0.467l-0.474 0.956zM32.334 21.938c0.013 0.021 0.025 0.053 0.025 0.111h1.067c0-0.231-0.055-0.457-0.178-0.661l-0.914 0.55zM32.359 22.049c0 0.062-0.013 0.087-0.019 0.097l0.902 0.569c0.13-0.205 0.184-0.434 0.184-0.666h-1.067zM32.339 22.145c-0.006 0.010-0.019 0.028-0.064 0.048l0.442 0.971c0.212-0.097 0.395-0.245 0.524-0.449l-0.902-0.569zM32.274 22.194c-0.041 0.019-0.114 0.039-0.235 0.039v1.067c0.235 0 0.467-0.038 0.68-0.136l-0.445-0.969zM34.742 23.211h0.533v-0.533h-0.533v0.533zM34.742 23.577v0.533h0.533v-0.533h-0.533zM33.531 23.577h-0.533v0.533h0.533v-0.533zM33.531 23.211v-0.533h-0.533v0.533h0.533zM33.684 21.302h0.533v-0.533h-0.533v0.533zM33.684 23.577v0.533h0.533v-0.533h-0.533zM33.215 23.577h-0.533v0.533h0.533v-0.533zM33.215 21.302v-0.533h-0.533v0.533h0.533zM34.584 22.229h0.533v-0.533h-0.533v0.533zM34.584 22.585v0.533h0.533v-0.533h-0.533zM33.531 22.585h-0.533v0.533h0.533v-0.533zM33.531 22.229v-0.533h-0.533v0.533h0.533zM34.74 21.302h0.533v-0.533h-0.533v0.533zM34.74 21.669v0.533h0.533v-0.533h-0.533zM33.531 21.669h-0.533v0.533h0.533v-0.533zM33.531 21.302v-0.533h-0.533v0.533h0.533zM34.209 23.211v0.366h1.067v-0.366h-1.067zM34.742 23.044h-1.211v1.067h1.211v-1.067zM34.064 23.577v-0.366h-1.067v0.366h1.067zM33.531 23.745h1.211v-1.067h-1.211v1.067zM33.151 21.302v2.275h1.067v-2.275h-1.067zM33.684 23.044h-0.469v1.067h0.469v-1.067zM33.749 23.577v-2.275h-1.067v2.275h1.067zM33.215 21.835h0.469v-1.067h-0.469v1.067zM34.051 22.229v0.356h1.067v-0.356h-1.067zM34.584 22.052h-1.053v1.067h1.053v-1.067zM34.064 22.585v-0.356h-1.067v0.356h1.067zM33.531 22.762h1.053v-1.067h-1.053v1.067zM34.207 21.302v0.367h1.067v-0.367h-1.067zM34.74 21.136h-1.209v1.067h1.209v-1.067zM34.064 21.669v-0.367h-1.067v0.367h1.067zM33.531 21.835h1.209v-1.067h-1.209v1.067zM36.064 21.302h0.533v-0.533h-0.533v0.533zM36.064 23.577v0.533h0.533v-0.533h-0.533zM35.597 23.577h-0.533v0.533h0.533v-0.533zM35.597 21.302v-0.533h-0.533v0.533h0.533zM36.764 21.302h0.533v-0.533h-0.533v0.533zM36.764 21.669v0.533h0.533v-0.533h-0.533zM34.908 21.669h-0.533v0.533h0.533v-0.533zM34.908 21.302v-0.533h-0.533v0.533h0.533zM35.531 21.302v2.275h1.067v-2.275h-1.067zM36.064 23.044h-0.467v1.067h0.467v-1.067zM36.13 23.577v-2.275h-1.067v2.275h1.067zM35.597 21.835h0.467v-1.067h-0.467v1.067zM36.231 21.302v0.367h1.067v-0.367h-1.067zM36.764 21.136h-1.856v1.067h1.856v-1.067zM35.441 21.669v-0.367h-1.067v0.367h1.067zM34.908 21.835h1.856v-1.067h-1.856v1.067zM38.558 23.211h0.533v-0.533h-0.533v0.533zM38.558 23.577v0.533h0.533v-0.533h-0.533zM37.347 23.577h-0.533v0.533h0.533v-0.533zM37.347 23.211v-0.533h-0.533v0.533h0.533zM37.5 21.302h0.533v-0.533h-0.533v0.533zM37.5 23.577v0.533h0.533v-0.533h-0.533zM37.031 23.577h-0.533v0.533h0.533v-0.533zM37.031 21.302v-0.533h-0.533v0.533h0.533zM38.4 22.229h0.533v-0.533h-0.533v0.533zM38.4 22.585v0.533h0.533v-0.533h-0.533zM37.347 22.585h-0.533v0.533h0.533v-0.533zM37.347 22.229v-0.533h-0.533v0.533h0.533zM38.556 21.302h0.533v-0.533h-0.533v0.533zM38.556 21.669v0.533h0.533v-0.533h-0.533zM37.347 21.669h-0.533v0.533h0.533v-0.533zM37.347 21.302v-0.533h-0.533v0.533h0.533zM38.024 23.211v0.366h1.067v-0.366h-1.067zM38.558 23.044h-1.211v1.067h1.211v-1.067zM37.88 23.577v-0.366h-1.067v0.366h1.067zM37.347 23.745h1.211v-1.067h-1.211v1.067zM36.967 21.302v2.275h1.067v-2.275h-1.067zM37.5 23.044h-0.469v1.067h0.469v-1.067zM37.564 23.577v-2.275h-1.067v2.275h1.067zM37.031 21.835h0.469v-1.067h-0.469v1.067zM37.867 22.229v0.356h1.067v-0.356h-1.067zM38.4 22.052h-1.053v1.067h1.053v-1.067zM37.88 22.585v-0.356h-1.067v0.356h1.067zM37.347 22.762h1.053v-1.067h-1.053v1.067zM38.023 21.302v0.367h1.067v-0.367h-1.067zM38.556 21.136h-1.209v1.067h1.209v-1.067zM37.88 21.669v-0.367h-1.067v0.367h1.067zM37.347 21.835h1.209v-1.067h-1.209v1.067zM38.831 21.302v-0.533h-0.533v0.533h0.533zM40.128 21.38l-0.205 0.492 0.001 0.001 0.204-0.493zM40.458 22.302l-0.482-0.229-0.001 0.003 0.483 0.227zM40.284 22.519l0.327 0.422 0.001-0.001-0.327-0.421zM40.023 22.657l-0.173-0.504-0.039 0.013-0.036 0.019 0.248 0.472zM39.875 22.735v0.533h0.132l0.117-0.061-0.248-0.472zM39.137 22.735l-0.533 0.005 0.005 0.529h0.529v-0.533zM39.134 22.369v-0.533h-0.538l0.005 0.538 0.533-0.005zM40.009 22.204l-0.469-0.253-0.002 0.004-0.002 0.004 0.473 0.246zM39.3 21.669v-0.533h-0.533v0.533h0.533zM39.3 23.577v0.533h0.533v-0.533h-0.533zM38.831 23.577h-0.533v0.533h0.533v-0.533zM40.103 23.577l-0.475 0.243 0.149 0.29h0.326v-0.533zM39.584 22.563l-0.003-0.533-0.866 0.005 0.394 0.771 0.475-0.243zM40.080 22.56l0.472-0.249-0.151-0.287-0.324 0.002 0.003 0.533zM40.605 23.555h0.533v-0.132l-0.062-0.117-0.472 0.249zM40.605 23.577v0.533h0.533v-0.533h-0.533zM38.831 21.835h0.848v-1.067h-0.848v1.067zM39.68 21.835c0.123 0 0.199 0.019 0.243 0.037l0.41-0.985c-0.206-0.086-0.428-0.119-0.654-0.119v1.067zM39.924 21.873c0.039 0.016 0.047 0.029 0.050 0.033l0.889-0.59c-0.133-0.2-0.319-0.341-0.531-0.429l-0.407 0.986zM39.974 21.906c0 0 0.003 0.004 0.006 0.015s0.007 0.033 0.007 0.067h1.067c0-0.231-0.053-0.465-0.19-0.671l-0.889 0.59zM39.987 21.988c0 0.031-0.003 0.052-0.005 0.066s-0.005 0.019-0.005 0.019l0.963 0.459c0.083-0.175 0.114-0.362 0.114-0.543h-1.067zM39.975 22.075c-0.005 0.011-0.010 0.017-0.018 0.023l0.655 0.842c0.142-0.11 0.253-0.249 0.329-0.411l-0.965-0.454zM39.958 22.098c-0.022 0.017-0.056 0.037-0.108 0.055l0.347 1.009c0.148-0.051 0.288-0.123 0.414-0.22l-0.653-0.843zM39.775 22.185l-0.148 0.078 0.497 0.944 0.148-0.078-0.497-0.944zM39.875 22.201h-0.737v1.067h0.737v-1.067zM39.671 22.73l-0.003-0.366-1.067 0.009 0.003 0.366 1.067-0.009zM39.134 22.903h0.548v-1.067h-0.548v1.067zM39.683 22.903c0.142 0 0.304-0.025 0.458-0.108l-0.506-0.939c0.045-0.024 0.071-0.020 0.048-0.020v1.067zM40.14 22.795c0.144-0.077 0.263-0.194 0.342-0.345l-0.946-0.492c0.011-0.021 0.026-0.043 0.045-0.062s0.038-0.032 0.053-0.040l0.506 0.939zM40.478 22.457c0.076-0.142 0.106-0.292 0.106-0.435h-1.067c0-0.005 0.002-0.035 0.022-0.072l0.939 0.507zM40.585 22.022c0-0.139-0.026-0.288-0.099-0.431l-0.95 0.484c-0.019-0.037-0.018-0.060-0.018-0.053h1.067zM40.486 21.591c-0.080-0.158-0.205-0.278-0.356-0.355l-0.484 0.95c-0.018-0.009-0.039-0.023-0.060-0.044s-0.038-0.044-0.049-0.067l0.95-0.484zM40.129 21.236c-0.152-0.077-0.31-0.1-0.45-0.1v1.067c0.012 0 0.014 0.001 0.008-0s-0.022-0.005-0.043-0.016l0.484-0.95zM39.68 21.136h-0.38v1.067h0.38v-1.067zM38.767 21.669v1.908h1.067v-1.908h-1.067zM39.3 23.044h-0.469v1.067h0.469v-1.067zM39.364 23.577v-2.275h-1.067v2.275h1.067zM40.578 23.334l-0.519-1.014-0.95 0.486 0.519 1.014 0.95-0.486zM39.588 23.096l0.495-0.003-0.007-1.067-0.495 0.003 0.007 1.067zM39.608 22.809l0.525 0.995 0.943-0.498-0.525-0.995-0.943 0.498zM40.071 23.555v0.022h1.067v-0.022h-1.067zM40.605 23.044h-0.502v1.067h0.502v-1.067zM42.047 22.872l-0.504 0.173 0.003 0.010 0.004 0.009 0.497-0.193zM41.981 22.782l-0.35 0.402 0.004 0.003 0.004 0.003 0.343-0.409zM41.619 22.614l-0.164 0.508 0.004 0.001 0.16-0.509zM41.325 22.502l-0.221 0.486 0.002 0.001 0.219-0.486zM41.081 22.357l-0.335 0.415 0.007 0.005 0.328-0.421zM40.915 22.161l-0.47 0.252 0.003 0.005 0.467-0.257zM40.919 21.646l0.469 0.254 0.001-0.003-0.471-0.251zM41.094 21.446l0.316 0.43 0.004-0.003-0.32-0.427zM41.359 21.316l-0.15-0.512-0.001 0 0.151 0.511zM42.428 21.61l-0.446 0.292 0.002 0.003 0.444-0.295zM42.533 21.971v0.533h0.533v-0.533h-0.533zM42.067 21.971h-0.533v0.533h0.533v-0.533zM42.025 21.796l-0.471 0.25 0.003 0.006 0.003 0.006 0.465-0.261zM41.9 21.675l-0.249 0.472 0.004 0.002 0.245-0.473zM41.487 21.669l0.216 0.488 0.004-0.002 0.004-0.002-0.223-0.484zM41.365 21.768l0.444 0.296 0.003-0.005-0.447-0.291zM41.353 22.010l-0.457 0.274 0.003 0.006 0.003 0.005 0.451-0.285zM41.778 22.244l-0.158 0.509 0.003 0.001 0.154-0.51zM42.105 22.371l-0.239 0.477 0.002 0.001 0.236-0.478zM41.376 23.565l-0.142 0.514 0.005 0.001 0.137-0.515zM41.078 23.429l-0.301 0.441 0.002 0.002 0.298-0.442zM40.786 22.865v-0.533h-0.533v0.533h0.533zM41.256 22.865h0.533v-0.533h-0.533v0.533zM41.381 23.163l-0.324 0.424 0.005 0.004 0.318-0.428zM41.525 23.229l-0.127 0.518 0.002 0.001 0.125-0.518zM41.909 23.215l-0.211-0.49-0.004 0.002 0.215 0.488zM42.026 23.119l-0.449-0.288-0.005 0.008 0.454 0.28zM42.599 22.982c0-0.095-0.015-0.199-0.055-0.302l-0.995 0.385c-0.015-0.039-0.017-0.069-0.017-0.083h1.067zM42.551 22.699c-0.049-0.141-0.135-0.249-0.227-0.326l-0.685 0.817c-0.027-0.023-0.070-0.070-0.096-0.145l1.009-0.347zM42.331 22.38c-0.084-0.073-0.178-0.126-0.262-0.164l-0.449 0.967c0.007 0.003 0.013 0.006 0.017 0.008s0.007 0.004 0.008 0.004c0.001 0.001 0 0-0.002-0.001s-0.007-0.005-0.013-0.010l0.701-0.804zM42.070 22.215c-0.087-0.040-0.186-0.076-0.291-0.109l-0.32 1.017c0.081 0.025 0.132 0.046 0.162 0.059l0.449-0.967zM41.783 22.107c-0.086-0.028-0.165-0.058-0.239-0.091l-0.437 0.973c0.112 0.050 0.228 0.095 0.348 0.134l0.328-1.015zM41.546 22.016c-0.058-0.026-0.102-0.054-0.137-0.080l-0.656 0.841c0.108 0.084 0.226 0.153 0.351 0.21l0.441-0.971zM41.416 21.941c-0.019-0.015-0.028-0.028-0.033-0.037l-0.935 0.514c0.076 0.139 0.178 0.257 0.298 0.354l0.669-0.831zM41.386 21.91c0.002 0.003 0.003 0.006 0.004 0.008s0.001 0.004 0.001 0.004c0 0-0.001-0.005-0.001-0.018h-1.067c0 0.171 0.035 0.346 0.122 0.509l0.94-0.503zM41.389 21.904c0-0.008 0.001-0.011 0.001-0.010s-0 0.001-0.001 0.002-0.001 0.002-0.001 0.003l-0.938-0.507c-0.087 0.161-0.127 0.336-0.127 0.511h1.067zM41.389 21.897c0.002-0.004 0.006-0.011 0.021-0.021l-0.632-0.859c-0.136 0.1-0.248 0.226-0.329 0.378l0.941 0.502zM41.414 21.872c0.018-0.013 0.048-0.030 0.097-0.045l-0.303-1.023c-0.155 0.046-0.302 0.115-0.434 0.214l0.64 0.853zM41.509 21.828c0.048-0.014 0.11-0.024 0.189-0.024v-1.067c-0.167 0-0.331 0.020-0.489 0.067l0.3 1.024zM41.698 21.804c0.104 0 0.168 0.019 0.207 0.038l0.464-0.96c-0.211-0.102-0.44-0.144-0.671-0.144v1.067zM41.905 21.842c0.047 0.023 0.066 0.044 0.076 0.060l0.893-0.584c-0.127-0.195-0.302-0.339-0.505-0.437l-0.464 0.96zM41.984 21.905c0.008 0.011 0.016 0.028 0.016 0.066h1.067c0-0.232-0.062-0.457-0.194-0.656l-0.889 0.59zM42.533 21.437h-0.466v1.067h0.466v-1.067zM42.6 21.971c0-0.143-0.031-0.295-0.111-0.436l-0.93 0.523c-0.024-0.042-0.026-0.077-0.026-0.086h1.067zM42.496 21.546c-0.083-0.156-0.208-0.27-0.351-0.344l-0.491 0.947c-0.013-0.007-0.031-0.018-0.051-0.037s-0.037-0.042-0.050-0.066l0.942-0.5zM42.149 21.204c-0.154-0.081-0.316-0.106-0.459-0.106v1.067c0.012 0 0.013 0.001 0.007-0s-0.024-0.006-0.046-0.018l0.498-0.943zM41.69 21.098c-0.132 0-0.282 0.020-0.427 0.087l0.447 0.968c-0.019 0.009-0.032 0.012-0.035 0.012s0.001-0.001 0.015-0.001v-1.067zM41.272 21.181c-0.13 0.058-0.26 0.152-0.353 0.296l0.894 0.581c-0.039 0.061-0.088 0.089-0.11 0.099l-0.431-0.976zM40.922 21.472c-0.088 0.132-0.13 0.282-0.13 0.433h1.067c0 0.022-0.003 0.049-0.012 0.078s-0.022 0.057-0.037 0.080l-0.888-0.592zM40.792 21.905c0 0.129 0.033 0.26 0.104 0.379l0.915-0.549c0.034 0.056 0.048 0.117 0.048 0.17h-1.067zM40.902 22.295c0.066 0.104 0.151 0.182 0.231 0.238l0.613-0.873c0.004 0.003 0.030 0.022 0.056 0.064l-0.901 0.571zM41.134 22.534c0.077 0.054 0.159 0.096 0.24 0.131l0.418-0.981c-0.015-0.006-0.026-0.012-0.034-0.016s-0.011-0.006-0.011-0.006l-0.613 0.873zM41.374 22.665c0.077 0.033 0.159 0.062 0.246 0.089l0.316-1.019c-0.061-0.019-0.108-0.036-0.144-0.052l-0.418 0.981zM41.624 22.755c0.102 0.031 0.181 0.063 0.242 0.093l0.477-0.954c-0.126-0.063-0.264-0.116-0.411-0.16l-0.309 1.021zM41.868 22.849c0.059 0.029 0.094 0.055 0.113 0.073l0.721-0.786c-0.108-0.099-0.232-0.179-0.362-0.243l-0.473 0.956zM41.981 22.921c0.013 0.012 0.015 0.018 0.016 0.019l0.978-0.427c-0.064-0.147-0.157-0.273-0.272-0.378l-0.721 0.786zM41.997 22.94c-0.002-0.003 0.004 0.006 0.004 0.038h1.067c0-0.155-0.027-0.314-0.093-0.465l-0.978 0.427zM42.001 22.979c0 0.015-0.001 0.023-0.002 0.027s-0.001 0.004-0.001 0.003l0.957 0.472c0.079-0.161 0.113-0.332 0.113-0.502h-1.067zM41.998 23.008c-0 0.001-0 0.001-0 0.001s0-0 0-0-0 0.001-0.001 0.002-0.003 0.002-0.005 0.004l0.636 0.856c0.138-0.102 0.25-0.233 0.327-0.391l-0.957-0.472zM41.991 23.015c-0.013 0.010-0.038 0.025-0.086 0.038l0.286 1.028c0.154-0.043 0.303-0.11 0.436-0.209l-0.636-0.856zM41.905 23.052c-0.047 0.013-0.11 0.023-0.196 0.023v1.067c0.164 0 0.327-0.018 0.482-0.062l-0.286-1.028zM41.709 23.075c-0.066 0-0.131-0.008-0.195-0.026l-0.275 1.031c0.154 0.041 0.311 0.062 0.47 0.062v-1.067zM41.518 23.050c-0.057-0.016-0.103-0.038-0.142-0.064l-0.596 0.884c0.14 0.094 0.292 0.163 0.455 0.208l0.284-1.028zM41.379 22.988c-0.021-0.014-0.036-0.030-0.049-0.054l-0.928 0.526c0.093 0.164 0.22 0.302 0.376 0.409l0.601-0.881zM41.33 22.934c-0.001-0.001-0.003-0.005-0.005-0.015s-0.005-0.028-0.005-0.055h-1.067c0 0.203 0.043 0.408 0.149 0.596l0.928-0.526zM40.786 23.398h0.47v-1.067h-0.47v1.067zM40.723 22.865c0 0.123 0.019 0.262 0.079 0.397l0.974-0.435c0.009 0.019 0.012 0.034 0.013 0.040s0 0.006 0-0.002h-1.067zM40.802 23.262c0.055 0.124 0.14 0.237 0.256 0.325l0.647-0.848c0.037 0.028 0.060 0.062 0.071 0.088l-0.974 0.435zM41.063 23.591c0.104 0.078 0.219 0.127 0.335 0.156l0.254-1.036c0.005 0.001 0.024 0.007 0.047 0.024l-0.636 0.856zM41.4 23.747c0.103 0.025 0.207 0.035 0.309 0.035v-1.067c-0.031 0-0.050-0.003-0.060-0.006l-0.25 1.037zM41.709 23.782c0.126 0 0.273-0.017 0.415-0.080l-0.43-0.976c0.020-0.009 0.034-0.011 0.035-0.012s-0.004 0.001-0.021 0.001v1.067zM42.12 23.704c0.132-0.057 0.266-0.153 0.36-0.305l-0.908-0.559c0.044-0.071 0.1-0.104 0.126-0.115l0.422 0.979zM42.475 23.407c0.084-0.132 0.123-0.278 0.123-0.425h-1.067c0-0.045 0.013-0.1 0.045-0.15l0.898 0.576z">
      </path>
    </symbol>

    <symbol id="icon-Logo-4" viewBox="0 0 57 32">
      <path
        d="M14.27 23.859c0.13 0.147 0.199 0.332 0.196 0.521 0.007 0.123-0.017 0.247-0.070 0.361s-0.132 0.216-0.233 0.297c-0.252 0.175-0.565 0.26-0.881 0.24h-1.549v-3.302h1.517c0.299-0.018 0.596 0.059 0.84 0.219 0.098 0.075 0.176 0.17 0.227 0.277s0.074 0.224 0.068 0.341c0.009 0.182-0.054 0.361-0.176 0.505-0.118 0.131-0.28 0.222-0.462 0.258 0.205 0.034 0.391 0.134 0.523 0.282zM12.454 23.36h0.648c0.147 0.010 0.294-0.029 0.412-0.11 0.049-0.040 0.087-0.090 0.111-0.146s0.034-0.116 0.028-0.176c0.005-0.060-0.005-0.12-0.029-0.175s-0.061-0.106-0.108-0.147c-0.122-0.083-0.273-0.123-0.425-0.111h-0.638v0.866zM13.578 24.627c0.052-0.041 0.093-0.093 0.12-0.151s0.038-0.121 0.034-0.184c0.004-0.064-0.008-0.127-0.035-0.186s-0.069-0.111-0.121-0.153c-0.127-0.086-0.283-0.128-0.44-0.119h-0.68v0.908h0.689c0.155 0.008 0.309-0.032 0.435-0.114z">
      </path>
      <path
        d="M17.371 25.278l-0.844-1.291h-0.317v1.291h-0.726v-3.302h1.374c0.346-0.022 0.689 0.078 0.957 0.281 0.192 0.179 0.308 0.415 0.327 0.666s-0.061 0.499-0.224 0.7c-0.17 0.178-0.401 0.296-0.655 0.336l0.898 1.32h-0.789zM16.21 23.538h0.594c0.412 0 0.618-0.167 0.618-0.5 0.004-0.068-0.007-0.136-0.033-0.2s-0.066-0.122-0.118-0.171c-0.13-0.099-0.298-0.147-0.467-0.134h-0.601l0.007 1.005z">
      </path>
      <path
        d="M21.339 24.614h-1.446l-0.255 0.665h-0.761l1.328-3.265h0.823l1.323 3.265h-0.761l-0.25-0.665zM21.145 24.114l-0.529-1.394-0.529 1.394h1.057z">
      </path>
      <path d="M26.305 25.278h-0.721l-1.616-2.245v2.245h-0.719v-3.302h0.719l1.616 2.258v-2.258h0.721v3.302z"></path>
      <path
        d="M30.417 24.488c-0.149 0.249-0.376 0.452-0.652 0.582-0.314 0.145-0.662 0.217-1.013 0.208h-1.283v-3.302h1.283c0.351-0.008 0.698 0.061 1.013 0.203 0.276 0.127 0.503 0.328 0.652 0.576 0.148 0.269 0.226 0.565 0.226 0.866s-0.077 0.598-0.226 0.866zM29.593 24.409c0.206-0.219 0.319-0.499 0.319-0.788s-0.113-0.569-0.319-0.788c-0.249-0.199-0.573-0.3-0.902-0.281h-0.5v2.137h0.5c0.329 0.019 0.654-0.082 0.902-0.281z">
      </path>
      <path d="M21.79 3.609c0 0 9.301 3.215 9.103 7.867v7.869c0 0-9.294-3.217-9.1-7.869l-0.004-7.867z">
      </path>
      <path d="M39.179 17.503c1.757-1.107 3.788-1.792 5.909-1.994v-2.463c-2.444 0.862-4.517 2.426-5.909 4.457z"></path>
      <path
        d="M38.124 18.245c1.438-2.651 3.93-4.696 6.964-5.715v-7.098c0 0-13.245 4.58-12.965 11.205v11.203c0 0 0.59-0.205 1.519-0.589 0-0.358 0-0.719 0.042-1.082 0.274-3.076 1.871-5.926 4.44-7.924z">
      </path>
      <path
        d="M36.864 22.407c0.070-0.777 0.225-1.546 0.463-2.294-1.599 1.725-2.568 3.866-2.77 6.122-0.019 0.213-0.030 0.426-0.035 0.645 0.752-0.331 1.628-0.744 2.548-1.229-0.235-1.067-0.304-2.159-0.206-3.244z">
      </path>
      <path
        d="M37.391 22.447c-0.088 0.982-0.033 1.969 0.164 2.938 3.619-1.983 7.685-5.046 7.528-8.748v-0.323c-2.585 0.265-5.004 1.3-6.885 2.946-0.44 1.020-0.712 2.094-0.807 3.188z">
      </path>
    </symbol>

    <symbol id="icon-Logo-5" viewBox="0 0 57 32">
      <path
        d="M28.493 14.618c-0.236-0.315-0.349-0.686-0.323-1.061v-1.538c0-0.471 0.107-0.83 0.321-1.075s0.581-0.367 1.102-0.366c0.489 0 0.836 0.104 1.042 0.313 0.224 0.266 0.333 0.592 0.308 0.92v0.361h-0.875v-0.366c0.003-0.12-0.005-0.24-0.025-0.358-0.013-0.081-0.057-0.156-0.125-0.213-0.090-0.061-0.203-0.091-0.317-0.083-0.12-0.008-0.239 0.024-0.333 0.088-0.076 0.063-0.127 0.145-0.145 0.235-0.025 0.126-0.037 0.253-0.034 0.38v1.866c-0.014 0.18 0.025 0.36 0.112 0.524 0.044 0.055 0.104 0.099 0.175 0.127s0.149 0.038 0.226 0.029c0.112 0.008 0.223-0.022 0.31-0.084 0.071-0.061 0.117-0.141 0.13-0.227 0.020-0.124 0.030-0.249 0.027-0.374v-0.379h0.875v0.346c0.025 0.342-0.082 0.682-0.303 0.967-0.201 0.228-0.544 0.343-1.047 0.343s-0.884-0.122-1.1-0.375z">
      </path>
      <path
        d="M32.137 14.633c-0.221-0.239-0.332-0.588-0.332-1.050v-1.617c0-0.457 0.11-0.802 0.332-1.037s0.591-0.351 1.109-0.35c0.515 0 0.882 0.117 1.103 0.35 0.221 0.235 0.333 0.58 0.333 1.037v1.617c0 0.457-0.112 0.807-0.337 1.048s-0.591 0.361-1.1 0.361c-0.509 0-0.886-0.122-1.109-0.36zM33.654 14.245c0.079-0.15 0.115-0.314 0.105-0.479v-1.98c0.010-0.161-0.025-0.322-0.103-0.469-0.044-0.057-0.106-0.101-0.179-0.129s-0.152-0.037-0.231-0.027c-0.079-0.009-0.159 0-0.231 0.028s-0.135 0.072-0.18 0.129c-0.080 0.146-0.116 0.308-0.105 0.469v1.99c-0.011 0.165 0.025 0.329 0.105 0.479 0.051 0.050 0.114 0.091 0.185 0.119s0.147 0.042 0.225 0.042c0.078 0 0.154-0.014 0.225-0.042s0.134-0.068 0.185-0.119v-0.009z">
      </path>
      <path
        d="M35.735 10.626h0.942l0.708 2.984 0.725-2.984h0.917l0.092 4.308h-0.678l-0.072-2.994-0.699 2.994h-0.544l-0.725-3.005-0.067 3.005h-0.685l0.085-4.308z">
      </path>
      <path
        d="M40.176 10.626h1.468c0.846 0 1.268 0.408 1.268 1.223 0 0.781-0.445 1.171-1.335 1.17h-0.5v1.915h-0.906l0.005-4.308zM41.43 12.467c0.090 0.010 0.18 0.003 0.266-0.021s0.165-0.063 0.232-0.115c0.104-0.146 0.15-0.316 0.13-0.486 0.005-0.131-0.010-0.263-0.044-0.391-0.013-0.043-0.036-0.083-0.067-0.118s-0.070-0.065-0.114-0.087c-0.126-0.052-0.265-0.076-0.404-0.069h-0.352v1.287h0.352z">
      </path>
      <path
        d="M44.218 10.626h0.973l0.998 4.308h-0.844l-0.197-0.993h-0.868l-0.203 0.993h-0.857l0.998-4.308zM45.050 13.441l-0.339-1.808-0.339 1.808h0.678z">
      </path>
      <path d="M46.996 10.626h0.634l1.214 2.457v-2.457h0.752v4.308h-0.603l-1.221-2.565v2.565h-0.777l0.002-4.308z">
      </path>
      <path d="M51.357 13.291l-1.009-2.659h0.85l0.616 1.708 0.578-1.708h0.832l-0.997 2.659v1.642h-0.87v-1.642z"></path>
      <path d="M29.892 16.817v0.225h-0.739v1.75h-0.31v-1.75h-0.743v-0.225h1.792z"></path>
      <path
        d="M32.209 18.793h-0.239c-0.024 0.001-0.048-0.005-0.067-0.019-0.018-0.011-0.032-0.027-0.040-0.045l-0.214-0.469h-1.026l-0.214 0.469c-0.006 0.020-0.017 0.038-0.033 0.053-0.019 0.013-0.043 0.020-0.067 0.019h-0.239l0.906-1.976h0.315l0.917 1.968zM30.709 18.059h0.855l-0.362-0.804c-0.027-0.061-0.049-0.123-0.067-0.186-0.013 0.038-0.024 0.073-0.034 0.105l-0.033 0.083-0.359 0.802z">
      </path>
      <path
        d="M33.771 18.599c0.057 0.003 0.114 0.003 0.17 0 0.049-0.004 0.097-0.012 0.145-0.023 0.044-0.009 0.088-0.021 0.13-0.036 0.040-0.014 0.080-0.031 0.121-0.048v-0.444h-0.362c-0.009 0-0.018-0.001-0.026-0.003s-0.016-0.007-0.023-0.012c-0.006-0.004-0.011-0.010-0.014-0.016s-0.005-0.013-0.004-0.020v-0.152h0.703v0.757c-0.057 0.035-0.118 0.067-0.181 0.094-0.065 0.028-0.132 0.050-0.201 0.067-0.074 0.019-0.15 0.032-0.227 0.041-0.088 0.008-0.176 0.013-0.264 0.012-0.156 0.001-0.311-0.024-0.457-0.073-0.136-0.047-0.259-0.117-0.362-0.206-0.101-0.090-0.18-0.196-0.234-0.313-0.057-0.131-0.085-0.27-0.083-0.41-0.002-0.141 0.026-0.281 0.082-0.413 0.052-0.117 0.132-0.224 0.234-0.313 0.103-0.089 0.227-0.159 0.362-0.205 0.155-0.050 0.32-0.075 0.486-0.074 0.084-0 0.169 0.006 0.252 0.017 0.074 0.010 0.146 0.027 0.216 0.050 0.063 0.021 0.124 0.047 0.181 0.078 0.056 0.031 0.108 0.065 0.158 0.103l-0.087 0.122c-0.007 0.011-0.017 0.021-0.029 0.027s-0.027 0.010-0.041 0.010c-0.020-0.001-0.040-0.006-0.056-0.016-0.027-0.013-0.056-0.028-0.089-0.047-0.038-0.021-0.079-0.039-0.121-0.053-0.054-0.019-0.11-0.033-0.167-0.044-0.076-0.012-0.153-0.018-0.23-0.017-0.12-0.001-0.238 0.017-0.35 0.055-0.101 0.035-0.192 0.088-0.266 0.156-0.075 0.071-0.132 0.155-0.169 0.246-0.081 0.214-0.081 0.445 0 0.659 0.040 0.093 0.101 0.178 0.181 0.249 0.074 0.068 0.164 0.121 0.265 0.156 0.115 0.034 0.237 0.047 0.359 0.039z">
      </path>
      <path d="M36.659 18.567h0.989v0.225h-1.292v-1.976h0.31l-0.007 1.75z"></path>
      <path d="M38.678 18.792h-0.31v-1.976h0.31v1.976z"></path>
      <path
        d="M39.83 16.826c0.018 0.009 0.034 0.021 0.047 0.036l1.324 1.489c-0.002-0.023-0.002-0.047 0-0.070 0-0.022 0-0.044 0-0.064v-1.408h0.27v1.984h-0.156c-0.023 0.002-0.046-0.002-0.067-0.011-0.019-0.010-0.035-0.023-0.049-0.038l-1.323-1.488c0 0.023 0 0.045 0 0.067s0 0.042 0 0.061v1.408h-0.259v-1.976h0.161c0.017 0 0.035 0.003 0.051 0.009z">
      </path>
      <path d="M43.753 16.817v0.217h-1.098v0.652h0.89v0.21h-0.89v0.674h1.098v0.217h-1.417v-1.971h1.417z">
      </path>
      <path
        d="M11.286 4.616l13.757 3.372v11.818l-13.757-3.371v-11.819zM10.404 3.609v13.401l15.52 3.806v-13.399l-15.52-3.807z">
      </path>
      <path d="M18.722 27.036l-15.522-3.809v-13.399l15.522 3.807v13.401z"></path>
      <path
        d="M10.661 4.465l13.578 3.33-5.774 4.987-13.58-3.332 5.776-4.985zM10.404 3.609l-7.204 6.219 15.522 3.807 7.202-6.219-15.52-3.807z">
      </path>
      <path d="M19.595 26.282l6.329-5.465-6.329-1.553v7.018z">
      </path>
    </symbol>

    <symbol id="icon-close" viewBox="0 0 32 32">
      <path
        d="M26.667 7.303l-1.97-1.97-7.808 7.808-7.808-7.808-1.97 1.97 7.808 7.808-7.808 7.808 1.97 1.97 7.808-7.808 7.808 7.808 1.97-1.97-7.808-7.808 7.808-7.808z">
      </path>
    </symbol>

    <!-- Forms Icon -->

    <symbol id="icon-person-form" viewBox="0 0 32 32">
      <path
        d="M16 16c2.947 0 5.333-2.387 5.333-5.333s-2.387-5.333-5.333-5.333c-2.947 0-5.333 2.387-5.333 5.333s2.387 5.333 5.333 5.333zM16 18.667c-3.56 0-10.667 1.787-10.667 5.333v1.333c0 0.733 0.6 1.333 1.333 1.333h18.667c0.733 0 1.333-0.6 1.333-1.333v-1.333c0-3.547-7.107-5.333-10.667-5.333z">
      </path>
    </symbol>

    <symbol id="icon-phone-form" viewBox="0 0 32 32">
      <path
        d="M24.882 19.773l-3.268-0.373c-0.785-0.090-1.557 0.18-2.11 0.733l-2.367 2.367c-3.641-1.853-6.626-4.825-8.478-8.478l2.38-2.38c0.553-0.553 0.823-1.325 0.733-2.11l-0.373-3.242c-0.154-1.299-1.248-2.277-2.56-2.277h-2.226c-1.454 0-2.663 1.209-2.573 2.663 0.682 10.987 9.469 19.761 20.443 20.443 1.454 0.090 2.663-1.119 2.663-2.573v-2.226c0.013-1.3-0.965-2.393-2.264-2.547z">
      </path>
    </symbol>

    <symbol id="icon-email-form" viewBox="0 0 32 32">
      <path
        d="M26.667 5.333h-21.333c-1.467 0-2.653 1.2-2.653 2.667l-0.013 16c0 1.467 1.2 2.667 2.667 2.667h21.333c1.467 0 2.667-1.2 2.667-2.667v-16c0-1.467-1.2-2.667-2.667-2.667zM26.133 11l-9.427 5.893c-0.427 0.267-0.987 0.267-1.413 0l-9.427-5.893c-0.333-0.213-0.533-0.573-0.533-0.96 0-0.893 0.973-1.427 1.733-0.96l8.933 5.587 8.933-5.587c0.76-0.467 1.733 0.067 1.733 0.96 0 0.387-0.2 0.747-0.533 0.96z">
      </path>
    </symbol>

    <symbol id="icon-check-form" viewBox="0 0 34 32">
      <path fill="#fff" style="fill: var(--color1, #fff); stroke: var(--color1, #fff)" stroke="#fff"
        stroke-linejoin="miter" stroke-linecap="butt" stroke-miterlimit="4" stroke-width="0.4267"
        d="M8.442 16.537l-0.147-0.14-2.205 2.088 7.767 7.41 16.318-15.567-2.19-2.089-14.128 13.465-5.416-5.167z"></path>
    </symbol>

    <symbol id="icon-icon-send" viewBox="0 0 32 32">
      <path fill="#fff" style="fill: var(--color1, #fff)"
        d="M32 0l-32 18 10.227 3.788 15.773-14.788-11.998 16.186 0.010 0.004-0.012-0.004v8.814l5.735-6.691 7.265 2.691 5-28z">
      </path>
    </symbol>

  </defs>
</svg>